<?xml version="1.0" encoding="utf-8"?>
<svg version="1.0" width="398.000000pt" height="398.000000pt" viewBox="0 0 398.000000 398.000000" preserveAspectRatio="xMidYMid meet" xmlns="http://www.w3.org/2000/svg">
  <g transform="translate(0.000000,398.000000) scale(0.100000,-0.100000)" fill="#000000" stroke="none">
    <path d="M1852 2829 c-145 -17 -279 -72 -369 -153 -69 -62 -212 -292 -163&#10;-261 14 9 12 -24 -5 -81 -8 -27 -18 -80 -21 -119 -4 -38 -12 -77 -20 -85 -27&#10;-32 -35 -69 -20 -103 20 -48 50 -70 86 -65 28 4 30 3 30 -30 0 -33 -1 -34 -30&#10;-28 -136 27 -170 -226 -60 -443 33 -66 60 -92 107 -106 33 -9 37 -14 57 -85&#10;30 -101 65 -166 125 -232 l51 -55 -43 -7 c-30 -5 -53 -18 -82 -46 -38 -37 -47&#10;-41 -169 -65 -171 -35 -204 -52 -245 -132 -22 -44 -52 -211 -90 -503 -12 -85&#10;-23 -172 -26 -192 -5 -33 -3 -38 15 -38 11 0 20 3 20 8 0 23 92 643 100 673&#10;12 45 43 85 81 104 29 15 243 65 276 65 38 -1 -13 -18 -117 -39 -130 -28 -151&#10;-35 -185 -71 -33 -35 -36 -48 -79 -350 -56 -387 -58 -405 -41 -388 3 2 25 148&#10;50 324 24 175 52 338 61 361 10 27 27 49 47 61 37 22 284 79 294 68 13 -12&#10;-16 -23 -125 -46 -139 -30 -167 -42 -186 -79 -13 -25 -106 -615 -106 -673 0&#10;-17 48 -18 875 -18 783 0 875 2 875 15 0 9 -9 66 -19 128 -11 62 -34 200 -51&#10;307 -35 212 -46 251 -82 273 -12 8 -77 27 -143 42 -115 26 -146 38 -133 50 9&#10;9 268 -53 294 -70 48 -31 54 -56 123 -495 37 -234 40 -250 50 -250 9 0 3 44&#10;-54 396 -25 150 -49 283 -54 295 -12 32 -55 75 -89 87 -15 5 -74 20 -132 32&#10;-92 20 -149 40 -112 40 24 0 247 -52 267 -62 40 -21 76 -63 89 -108 7 -25 35&#10;-178 60 -340 58 -367 52 -340 76 -340 16 0 19 5 15 28 -3 15 -23 144 -45 287&#10;-77 491 -80 497 -310 544 -142 30 -155 35 -190 74 -19 22 -43 37 -66 41 l-35&#10;7 53 58 c48 51 97 134 127 214 9 24 16 27 54 27 46 0 62 12 119 90 77 106 118&#10;253 97 352 -14 62 -41 88 -91 88 -41 0 -43 4 -32 59 l7 31 32 -20 c42 -26 48&#10;-26 90 11 29 26 35 38 35 73 0 29 -7 49 -25 70 -24 28 -25 34 -25 166 0 165&#10;-12 236 -53 315 -90 173 -296 285 -578 315 -106 11 -134 11 -237 -1z m-182&#10;-99 c-8 -5 -19 -10 -25 -10 -5 0 -3 5 5 10 8 5 20 10 25 10 6 0 3 -5 -5 -10z&#10;m850 -108 c0 -1 -9 2 -20 8 -11 6 -20 15 -20 20 0 6 9 2 20 -7 11 -10 20 -19&#10;20 -21z m-520 -587 c130 -6 240 -18 236 -24 -2 -3 6 -7 17 -7 107 -7 292 -66&#10;295 -95 1 -8 5 -29 8 -46 7 -39 3 -40 -74 -16 -43 14 -59 25 -78 54 -41 66&#10;-83 76 -198 47 -93 -23 -106 -31 -106 -65 0 -51 -123 -68 -200 -28 -22 11 -26&#10;19 -23 42 3 18 -1 34 -10 41 -26 22 -139 62 -174 62 -18 0 -33 5 -33 10 0 6&#10;-10 10 -22 9 -22 0 -22 -1 -3 -9 19 -8 19 -9 -2 -9 -12 -1 -34 -16 -50 -35&#10;-23 -28 -39 -36 -87 -45 -77 -14 -76 -14 -76 9 0 36 39 68 99 81 30 6 62 14&#10;70 17 10 4 12 1 6 -9 -8 -12 -6 -12 8 -1 19 16 176 31 262 25 33 -2 94 -5 135&#10;-8z m-640 -197 c11 -13 20 -35 19 -52 0 -28 -1 -29 -12 -12 -31 50 -71 74 -65&#10;39 1 -10 -1 -24 -6 -32 -14 -22 -9 -133 9 -191 31 -99 36 -110 64 -117 31 -7&#10;41 -20 41 -50 0 -17 -6 -23 -22 -23 -21 1 -21 2 -5 11 23 14 22 39 -3 39 -14&#10;0 -20 -7 -20 -22 0 -34 -70 95 -88 162 -26 100 -15 239 21 262 21 14 46 8 67&#10;-14z m660 -78 c10 -6 15 -28 16 -67 3 -132 4 -153 14 -153 6 0 10 10 10 23 0&#10;21 5 19 49 -24 38 -36 60 -49 100 -58 146 -31 237 7 300 124 26 48 23 35 -23&#10;-116 -20 -64 -43 -122 -51 -129 -8 -7 -15 -18 -15 -24 0 -19 -126 -136 -147&#10;-136 -14 0 -23 11 -32 40 -20 67 -43 75 -211 76 -146 2 -187 6 -231 22 -62 24&#10;-140 -5 -163 -59 l-13 -30 -43 36 c-46 38 -105 113 -121 155 -11 25 -39 197&#10;-39 233 0 12 11 -2 28 -34 36 -71 98 -114 179 -124 156 -18 273 63 284 195 2&#10;19 7 41 12 48 11 14 75 16 97 2z m652 -7 c23 -21 25 -127 2 -204 -30 -103&#10;-116 -228 -144 -210 -8 6 -11 13 -7 18 5 4 12 1 17 -7 8 -13 10 -12 10 3 0 10&#10;-8 17 -20 17 -22 0 -28 -35 -7 -43 6 -3 1 -6 -12 -6 -19 -1 -22 3 -17 22 3 12&#10;6 28 6 35 0 7 12 12 28 12 33 0 57 23 67 63 4 15 11 27 15 27 19 0 43 89 45&#10;168 3 74 1 82 -15 82 -10 0 -28 -12 -39 -26 l-21 -27 0 28 c0 55 53 83 92 48z&#10;m-1365 -55 c-3 -8 -6 -5 -6 6 -1 11 2 17 5 13 3 -3 4 -12 1 -19z m74 -201&#10;c-10 -9 -11 -8 -5 6 3 10 9 15 12 12 3 -3 0 -11 -7 -18z m9 -67 c0 -5 -4 -10&#10;-10 -10 -5 0 -10 5 -10 10 0 6 5 10 10 10 6 0 10 -4 10 -10z m543 -200 c4 0 7&#10;-5 7 -11 0 -7 -11 -8 -29 -4 -16 3 -44 7 -61 7 -17 1 -33 5 -37 11 -3 5 17 7&#10;53 3 33 -3 62 -5 67 -6z m63 -13 c4 -4 -5 -7 -19 -7 -15 0 -27 4 -27 10 0 11&#10;35 8 46 -3z m74 -3 c0 -2 -13 -4 -30 -4 -16 0 -30 4 -30 8 0 5 14 7 30 4 17&#10;-2 30 -6 30 -8z m-265 -21 c55 -12 160 -26 195 -25 32 0 117 11 143 17 31 8&#10;32 4 11 -57 -29 -85 -133 -108 -170 -37 -13 25 -13 29 0 29 8 0 18 5 21 11 4&#10;5 -10 3 -30 -5 -20 -9 -47 -13 -59 -10 -15 3 -28 -3 -45 -22 -20 -23 -28 -26&#10;-63 -21 -57 8 -89 42 -96 102 -5 45 -3 48 14 40 10 -4 46 -14 79 -22z m302 21&#10;c-3 -3 -12 -4 -19 -1 -8 3 -5 6 6 6 11 1 17 -2 13 -5z m-334 -346 c33 -17 65&#10;-22 153 -26 104 -4 114 -3 167 22 61 30 127 29 127 -1 0 -31 -74 -91 -135&#10;-109 -77 -24 -219 -24 -296 0 -94 28 -168 117 -106 129 42 8 48 7 90 -15z&#10;m437 -112 c0 -2 -7 -7 -16 -10 -8 -3 -12 -2 -9 4 6 10 25 14 25 6z m-454 -44&#10;c-5 -4 -66 26 -66 33 0 3 16 -3 35 -12 19 -9 33 -18 31 -21z m414 22 c0 -7&#10;-66 -34 -82 -33 -7 0 7 8 32 19 25 10 46 18 48 19 1 1 2 -1 2 -5z m-691 -71&#10;c-55 -58 -104 -129 -129 -186 -11 -23 -20 -36 -20 -29 -1 45 169 286 188 267&#10;3 -3 -15 -26 -39 -52z m1010 -88 c53 -78 76 -127 68 -147 -4 -8 -6 -6 -6 5 -2&#10;41 -67 144 -146 230 -25 26 -45 51 -45 54 0 16 85 -78 129 -142z m-692 129&#10;c-3 -3 -12 -4 -19 -1 -8 3 -5 6 6 6 11 1 17 -2 13 -5z m56 -11 c-7 -2 -21 -2&#10;-30 0 -10 3 -4 5 12 5 17 0 24 -2 18 -5z m210 0 c-7 -2 -21 -2 -30 0 -10 3 -4&#10;5 12 5 17 0 24 -2 18 -5z m-90 -10 c-18 -2 -48 -2 -65 0 -18 2 -4 4 32 4 36 0&#10;50 -2 33 -4z m32 -188 c14 -25 24 -49 20 -54 -12 -20 -40 -2 -64 42 -22 40&#10;-24 49 -11 56 19 13 23 9 55 -44z m-56 -27 c9 -15 13 -29 10 -32 -11 -11 -47&#10;7 -57 29 -20 44 23 47 47 3z m-59 -19 c0 -5 -10 -9 -21 -9 -18 0 -19 2 -9 15&#10;12 15 30 12 30 -6z m460 -45 l0 -25 27 21 c17 13 29 17 31 10 6 -18 -19 -40&#10;-47 -41 -17 -1 -20 -3 -8 -6 9 -2 15 -9 12 -14 -10 -15 -55 -10 -61 6 -4 8&#10;-12 15 -19 15 -14 0 -29 29 -20 39 3 3 15 0 26 -7 17 -11 21 -9 29 13 12 31&#10;30 24 30 -11z m-430 -60 c0 -8 -7 -14 -15 -14 -15 0 -21 21 -9 33 10 9 24 -2&#10;24 -19z m70 0 c0 -8 -7 -14 -15 -14 -15 0 -21 21 -9 33 10 9 24 -2 24 -19z&#10;m398 -23 c12 -1 22 -5 22 -11 0 -6 -32 -10 -75 -10 -41 0 -75 4 -75 9 0 10 39&#10;17 80 14 14 -1 35 -2 48 -2z m-381 -37 c23 -15 48 -52 40 -61 -3 -2 -8 4 -11&#10;14 -3 10 -19 26 -35 36 -31 18 -106 24 -96 7 4 -6 -1 -7 -11 -3 -12 4 -15 3&#10;-10 -5 5 -8 1 -10 -10 -5 -13 5 -16 3 -11 -10 4 -10 2 -16 -6 -14 -8 1 -11 -9&#10;-10 -28 l2 -30 -10 28 c-10 24 -8 32 12 53 40 43 105 50 156 18z m-57 -64 c0&#10;-5 7 -7 15 -4 20 8 19 -7 -2 -44 -18 -31 -56 -42 -45 -13 3 9 1 12 -6 7 -15&#10;-9 -25 10 -17 35 4 13 12 18 21 15 9 -3 12 -1 9 4 -3 6 1 10 9 10 9 0 16 -4&#10;16 -10z m-106 -96 c3 -8 2 -12 -4 -9 -6 3 -10 10 -10 16 0 14 7 11 14 -7z m40&#10;-39 c11 -8 15 -15 10 -15 -6 0 -19 7 -30 15 -10 8 -14 14 -9 14 6 0 19 -6 29&#10;-14z m74 -22 c-10 -2 -26 -2 -35 0 -10 3 -2 5 17 5 19 0 27 -2 18 -5z"/>
    <path d="M1685 2020 c11 -5 27 -9 35 -9 9 0 8 4 -5 9 -11 5 -27 9 -35 9 -9 0&#10;-8 -4 5 -9z"/>
    <path d="M1803 2023 c26 -2 67 -2 90 0 23 2 2 3 -48 3 -49 0 -68 -1 -42 -3z"/>
    <path d="M1808 2003 c29 -2 74 -2 100 0 26 2 2 3 -53 3 -55 0 -76 -1 -47 -3z"/>
    <path d="M2128 2003 c6 -2 18 -2 25 0 6 3 1 5 -13 5 -14 0 -19 -2 -12 -5z"/>
    <path d="M1478 1983 c7 -3 16 -2 19 1 4 3 -2 6 -13 5 -11 0 -14 -3 -6 -6z"/>
    <path d="M2178 1963 c6 -2 18 -2 25 0 6 3 1 5 -13 5 -14 0 -19 -2 -12 -5z"/>
    <path d="M2390 1951 c0 -10 19 -25 25 -20 1 2 -3 10 -11 17 -8 7 -14 8 -14 3z"/>
    <path d="M2451 1926 c2 -2 20 -6 39 -10 25 -4 31 -3 20 4 -14 9 -69 15 -59 6z"/>
    <path d="M1810 1440 c-6 -11 -8 -31 -4 -45 5 -20 12 -25 36 -25 16 0 44 -12&#10;64 -26 32 -25 36 -26 78 -13 25 7 43 16 41 20 -3 3 7 4 20 1 14 -2 32 1 40 8&#10;17 14 20 57 5 80 -7 11 -10 5 -10 -24 0 -37 -1 -38 -28 -33 -16 3 -41 0 -56&#10;-9 -37 -19 -73 -18 -84 2 -6 11 -23 17 -48 18 -38 1 -39 2 -36 34 2 37 -3 41&#10;-18 12z"/>
    <path d="M1835 1160 c-3 -5 -1 -10 4 -10 6 0 11 5 11 10 0 6 -2 10 -4 10 -3 0&#10;-8 -4 -11 -10z"/>
    <path d="M2053 1159 c-18 -5 -33 -12 -33 -15 0 -9 53 5 65 17 10 10 11 10 -32&#10;-2z"/>
    <path d="M1948 1143 c7 -3 16 -2 19 1 4 3 -2 6 -13 5 -11 0 -14 -3 -6 -6z"/>
    <path d="M2315 360 c3 -5 8 -10 11 -10 2 0 4 5 4 10 0 6 -5 10 -11 10 -5 0 -7&#10;-4 -4 -10z"/>
  </g>
</svg>