<?xml version="1.0" standalone="no"?>
<!DOCTYPE svg PUBLIC "-//W3C//DTD SVG 20010904//EN"
 "http://www.w3.org/TR/2001/REC-SVG-20010904/DTD/svg10.dtd">
<svg version="1.0" xmlns="http://www.w3.org/2000/svg"
 width="252.000000pt" height="300.000000pt" viewBox="0 0 252.000000 300.000000"
 preserveAspectRatio="xMidYMid meet">

<g transform="translate(0.000000,300.000000) scale(0.100000,-0.100000)"
fill="#000000" stroke="none">
<path d="M1157 2993 c-3 -5 -8 -44 -12 -89 l-7 -80 -90 -17 c-49 -10 -93 -15
-97 -13 -4 3 -20 37 -35 76 -32 81 -20 79 -154 22 -46 -19 -86 -40 -88 -46 -2
-6 7 -45 20 -88 l23 -76 -64 -44 c-35 -23 -70 -47 -78 -52 -9 -7 -31 6 -75 44
l-62 54 -80 -82 -80 -82 56 -64 57 -64 -38 -60 c-21 -33 -43 -68 -49 -78 -10
-18 -14 -18 -88 6 -46 14 -80 20 -85 14 -12 -13 -71 -170 -71 -189 0 -8 30
-30 70 -50 38 -19 70 -39 70 -43 -1 -23 -29 -164 -34 -169 -3 -3 -36 -9 -73
-12 -38 -4 -74 -10 -80 -14 -14 -9 -18 -193 -5 -214 5 -7 39 -13 86 -15 l79
-3 18 -90 c10 -49 17 -90 16 -91 -1 0 -32 -18 -69 -38 -38 -21 -68 -44 -68
-51 0 -22 72 -186 84 -191 6 -2 44 7 83 20 l71 24 46 -69 c25 -38 46 -71 46
-74 0 -3 -23 -35 -52 -71 l-51 -66 74 -74 c40 -41 78 -74 84 -74 6 0 37 23 69
52 40 36 62 49 70 42 7 -5 39 -27 72 -48 32 -21 60 -40 61 -41 2 -1 -8 -35
-22 -75 -14 -40 -25 -77 -25 -82 0 -14 146 -80 181 -82 30 -1 33 3 59 64 16
35 33 66 38 68 6 2 47 -4 92 -12 45 -9 84 -16 86 -16 2 0 4 -24 4 -54 0 -29 3
-67 6 -83 6 -30 8 -31 72 -35 37 -2 86 -3 109 0 l41 4 7 84 c4 46 9 84 12 84
2 0 38 7 80 16 41 8 81 13 87 11 7 -3 27 -33 45 -67 18 -34 39 -64 46 -66 14
-6 149 47 181 70 18 14 18 16 -4 83 -12 38 -22 74 -22 80 0 13 125 103 141
103 6 0 37 -23 70 -52 l60 -52 50 50 c28 27 64 66 80 86 l30 37 -56 61 c-38
41 -53 65 -47 73 4 7 25 38 46 70 20 31 42 57 49 57 7 0 44 -9 82 -20 38 -11
70 -20 71 -20 4 0 85 212 82 215 -2 2 -34 17 -71 34 -74 33 -73 30 -56 130 17
101 18 101 103 101 86 0 86 0 86 112 0 105 -7 115 -83 123 -35 4 -70 10 -77
15 -18 11 -50 158 -36 168 6 5 38 24 71 42 33 18 61 34 63 36 10 7 -72 204
-84 204 -3 0 -39 -10 -80 -22 -41 -11 -76 -19 -78 -17 -1 2 -24 37 -50 77 -40
63 -45 76 -34 90 7 10 30 38 51 64 45 56 45 57 -45 146 l-64 62 -63 -56 -62
-57 -27 21 c-15 12 -48 36 -73 53 l-47 31 26 79 c26 78 26 79 7 93 -19 14
-156 72 -183 78 -8 2 -24 -23 -40 -62 -34 -83 -39 -90 -58 -83 -8 3 -50 13
-92 22 l-77 16 -9 80 c-5 44 -14 83 -20 87 -14 10 -194 10 -199 1z m38 -323
c9 -66 -11 -100 -59 -100 -43 0 -62 23 -69 86 -5 45 -3 53 13 57 19 5 30 -25
30 -79 0 -29 16 -40 36 -23 11 9 13 23 8 57 -5 32 -3 46 7 52 20 13 27 4 34
-50z m135 40 c0 -11 -7 -20 -14 -20 -11 0 -16 -15 -18 -52 -2 -41 -7 -54 -20
-56 -15 -3 -18 5 -18 52 0 43 -3 56 -15 56 -8 0 -15 9 -15 20 0 17 7 20 50 20
43 0 50 -3 50 -20z m118 -12 c3 -13 -3 -18 -22 -18 -14 0 -26 -4 -26 -10 0 -5
9 -10 20 -10 11 0 20 -7 20 -15 0 -9 -9 -15 -25 -15 -14 0 -25 -4 -25 -9 0 -5
11 -12 25 -15 36 -9 32 -36 -4 -36 -58 0 -62 6 -55 74 4 33 9 65 11 69 3 4 21
7 41 5 26 -2 38 -8 40 -20z m-422 -10 c4 -6 -1 -17 -10 -24 -15 -11 -16 -17
-5 -52 12 -42 8 -72 -11 -72 -5 0 -16 21 -23 47 -7 28 -19 48 -29 51 -10 2
-18 8 -18 13 0 5 -1 12 -2 16 -2 3 15 12 37 19 53 16 53 16 61 2z m659 -53
c32 -31 34 -84 5 -110 -31 -28 -79 -24 -107 9 -26 30 -28 44 -12 80 22 48 78
58 114 21z m-776 -44 c22 -56 22 -81 0 -81 -10 0 -59 104 -59 126 0 8 8 14 18
14 12 0 25 -18 41 -59z m-89 15 c0 -8 -4 -18 -10 -21 -6 -4 0 -25 15 -54 13
-27 21 -51 18 -55 -15 -15 -33 -3 -55 36 -15 27 -30 43 -42 43 -33 0 -28 20
11 43 44 25 63 28 63 8z m1030 -68 c0 -14 -20 -19 -38 -9 -27 15 -37 0 -13
-19 14 -10 18 -19 12 -29 -8 -13 -12 -13 -26 -1 -15 12 -19 11 -35 -9 -16 -22
-40 -22 -40 0 0 6 16 35 35 65 l35 54 35 -22 c19 -13 35 -26 35 -30z m-1162
-22 c-27 -20 -22 -29 11 -23 53 11 80 -44 41 -83 -23 -23 -60 -27 -60 -6 0 8
9 18 20 21 35 11 24 34 -13 28 -23 -3 -37 0 -46 11 -18 21 -7 60 21 73 30 14
50 -3 26 -21z m782 -17 c41 -11 111 -37 155 -58 79 -39 215 -134 215 -150 0
-5 -12 -7 -27 -5 -27 4 -26 3 3 -6 16 -5 41 -21 55 -36 22 -23 24 -34 24 -112
-1 -72 -6 -99 -29 -155 -22 -51 -32 -66 -45 -63 -146 44 -321 76 -418 76 -55
0 -66 3 -98 31 -19 17 -32 35 -29 40 11 18 153 109 241 154 48 25 77 43 63 39
-43 -11 -133 -60 -227 -123 -50 -34 -95 -61 -100 -61 -19 0 -131 84 -169 127
-38 43 -45 47 -91 49 -27 0 -74 9 -104 19 -58 20 -146 25 -194 12 l-30 -9 25
27 c14 15 52 46 85 70 206 147 452 194 695 134z m-845 -90 c47 -47 49 -51 32
-64 -11 -7 -24 -12 -30 -10 -7 2 -27 6 -45 9 l-34 6 26 -31 c22 -25 24 -34 15
-46 -11 -12 -20 -7 -62 35 -65 65 -61 87 16 77 l52 -7 -24 25 c-22 24 -24 57
-3 57 4 0 30 -23 57 -51z m1365 16 c28 -28 31 -35 17 -41 -9 -3 -20 -3 -26 0
-5 3 -24 -12 -42 -35 -28 -36 -34 -39 -47 -26 -13 13 -11 20 16 54 22 27 30
45 26 61 -9 33 16 28 56 -13z m78 -88 c12 -18 22 -36 22 -40 0 -13 -23 -7 -42
10 -15 13 -18 14 -18 2 0 -8 4 -19 10 -25 5 -5 6 -15 0 -24 -8 -12 -11 -12
-28 3 -23 21 -38 10 -17 -13 13 -15 13 -19 2 -29 -12 -9 -20 -4 -41 23 l-26
34 53 46 c28 25 54 46 57 46 3 0 15 -15 28 -33z m-1571 -63 c54 -41 56 -44 44
-63 -8 -12 -20 -7 -65 28 -55 41 -63 51 -49 64 11 12 22 8 70 -29z m395 -22
c37 -12 54 -23 56 -37 9 -49 87 -90 128 -67 18 10 73 -18 138 -71 l28 -23 -36
-32 c-31 -27 -45 -32 -88 -32 -76 0 -248 -28 -345 -56 -69 -20 -88 -22 -95
-12 -24 38 -51 132 -55 193 -4 62 -2 74 19 105 42 62 129 73 250 32z m1255
-34 c26 -24 30 -53 9 -61 -8 -3 -18 5 -25 19 -11 26 -39 32 -59 12 -17 -17
-15 -43 4 -59 14 -11 14 -13 -2 -22 -13 -8 -22 -5 -36 13 -25 31 -23 66 7 95
30 31 71 32 102 3z m-163 -131 c48 -96 79 -199 90 -302 l6 -60 -23 30 c-36 49
-76 82 -141 116 -34 18 -62 33 -63 34 -2 1 11 39 27 85 21 57 31 103 32 146 1
81 10 75 72 -49z m-1340 -116 c14 -36 26 -66 26 -68 0 -1 -24 -15 -52 -29 -71
-36 -115 -70 -145 -113 l-25 -36 7 65 c12 124 65 275 134 380 16 24 16 22 22
-55 4 -52 16 -103 33 -144z m-263 129 l40 -21 19 23 c16 20 19 21 25 6 6 -15
-19 -78 -31 -78 -2 0 -31 13 -64 30 -42 21 -58 34 -54 45 8 20 17 19 65 -5z
m1826 3 c3 -7 -7 -18 -21 -24 -21 -10 -23 -15 -15 -31 7 -12 19 -18 37 -16 18
2 27 -2 30 -13 2 -11 -12 -23 -47 -38 -27 -11 -56 -21 -65 -21 -18 0 -34 22
-19 27 52 18 52 64 1 60 -51 -4 -44 21 14 48 56 26 79 28 85 8z m-897 -100 c0
-2 -26 -3 -57 -3 l-58 0 30 24 29 23 28 -20 c15 -11 28 -22 28 -24z m-880 3
c0 -16 -14 -36 -26 -36 -18 0 -31 -50 -15 -59 10 -7 6 -41 -5 -41 -13 0 -114
82 -114 93 0 21 14 35 40 40 33 6 120 8 120 3z m997 -108 c109 -106 223 -239
223 -261 0 -8 -50 -67 -112 -131 -79 -82 -118 -116 -134 -116 -15 0 -22 -5
-18 -13 7 -19 -75 -82 -89 -68 -14 14 -77 15 -77 1 0 -5 16 -10 35 -10 19 0
35 -4 35 -10 0 -5 -15 -10 -34 -10 -24 0 -47 11 -85 42 -28 23 -51 45 -51 49
0 4 10 10 23 12 13 3 7 5 -16 6 -34 1 -48 10 -118 82 -44 45 -96 101 -115 125
l-36 44 43 57 c24 32 96 111 159 175 l116 118 77 0 78 0 96 -92z m-373 -20
c-56 -57 -124 -131 -152 -165 l-50 -62 -20 22 c-19 22 -80 111 -121 180 l-23
37 36 15 c80 33 274 72 376 74 l55 1 -101 -102z m501 87 c128 -20 255 -54 262
-71 6 -16 -24 -68 -98 -173 l-52 -75 -36 45 c-19 24 -89 99 -155 167 l-120
122 50 0 c27 0 94 -7 149 -15z m712 -41 c2 -6 -12 -32 -31 -57 -19 -25 -30
-44 -23 -42 7 2 25 6 40 10 25 5 28 3 25 -17 -3 -19 -13 -24 -66 -33 -34 -7
-64 -9 -67 -7 -12 12 -3 35 30 70 l34 39 -42 -1 c-31 -1 -42 3 -42 14 0 10 18
18 55 26 64 14 82 13 87 -2z m-1571 -66 c9 -18 45 -75 81 -126 l64 -93 -54
-87 c-41 -66 -59 -86 -73 -84 -41 7 -144 62 -183 98 -91 82 -94 151 -9 230 31
30 134 94 150 94 4 0 15 -15 24 -32z m1211 5 c73 -36 139 -95 153 -138 16 -48
4 -90 -37 -136 -31 -34 -41 -39 -78 -39 -32 0 -52 -7 -74 -26 -17 -14 -31 -32
-31 -39 0 -21 -53 -30 -65 -10 -43 73 -98 155 -102 152 -2 -3 14 -31 35 -63
60 -91 66 -105 51 -115 -24 -14 -251 -59 -303 -59 -12 0 15 35 90 113 109 113
203 232 251 316 29 51 43 71 50 71 2 0 29 -12 60 -27z m-1525 -26 c10 -17 -4
-36 -47 -61 l-39 -24 42 -7 c25 -4 42 -12 42 -20 0 -21 -10 -23 -80 -16 -84 8
-91 28 -24 69 l47 30 -42 7 c-36 6 -51 21 -36 36 9 10 130 -4 137 -14z m1887
-123 c27 -34 27 -72 -1 -101 -30 -33 -80 -31 -107 3 -28 35 -26 69 4 99 33 34
77 33 104 -1z m-1899 -81 c40 -51 3 -123 -61 -123 -59 0 -90 75 -53 128 23 34
86 31 114 -5z m263 -143 c48 -23 87 -45 87 -50 0 -22 -23 -57 -43 -65 -13 -6
-28 -28 -37 -53 -13 -38 -13 -45 2 -75 9 -17 19 -50 22 -72 l5 -40 -40 45
c-72 83 -144 246 -168 384 -6 33 -11 62 -11 64 0 2 21 -19 48 -46 34 -37 71
-62 135 -92z m1433 80 c-8 -68 -45 -189 -77 -253 -29 -55 -91 -147 -116 -170
-20 -17 -20 -17 -15 31 5 61 -11 141 -43 211 -14 30 -23 56 -20 59 2 3 17 4
32 3 82 -4 96 -2 121 16 14 11 29 30 33 44 3 13 23 41 43 62 20 21 36 43 36
48 0 5 3 9 6 9 4 0 4 -27 0 -60z m-1173 13 c17 -21 65 -73 106 -116 l75 -77
-50 6 c-135 16 -274 50 -274 68 0 17 90 156 101 156 5 0 24 -17 42 -37z m1370
-53 c4 0 7 -10 7 -21 0 -22 -7 -23 -83 -4 -20 5 -27 2 -32 -14 -3 -12 -13 -21
-22 -21 -12 0 -14 7 -8 37 4 21 9 41 11 45 2 3 30 0 62 -8 31 -7 60 -13 65
-14z m-1855 -63 c2 -12 -12 -20 -55 -33 -78 -22 -78 -22 -78 1 0 15 13 23 55
36 63 19 74 19 78 -4z m447 -51 c61 -14 139 -28 175 -31 60 -7 69 -11 136 -69
74 -62 85 -76 60 -76 -8 0 -16 -3 -18 -8 -6 -14 -102 -71 -178 -105 -96 -44
-167 -61 -236 -55 -73 6 -114 44 -121 112 -5 36 -2 47 11 52 37 14 61 105 35
131 -9 9 -9 20 1 42 7 17 15 31 19 31 3 0 56 -11 116 -24z m947 -23 c105 -238
31 -370 -182 -323 -96 22 -395 190 -337 190 9 0 17 4 17 9 0 5 27 31 60 58 59
48 63 49 158 61 53 7 131 21 172 31 41 10 79 19 83 20 4 1 18 -20 29 -46z
m407 11 c12 -15 21 -37 21 -49 0 -12 -9 -34 -21 -49 -41 -52 -129 -23 -129 43
0 43 35 81 75 81 24 0 39 -7 54 -26z m-1771 -31 c2 -8 -16 -21 -42 -33 -33
-14 -46 -25 -46 -40 0 -36 -27 -21 -45 26 -19 50 -14 65 15 46 15 -9 26 -8 52
3 38 16 59 16 66 -2z m31 -89 c-9 -11 -7 -20 5 -39 9 -14 21 -23 25 -20 10 5
37 -23 29 -30 -10 -10 -128 -27 -143 -21 -26 10 -16 46 27 97 32 38 44 47 55
38 10 -9 10 -15 2 -25z m1648 -46 c30 -28 30 -74 1 -105 -23 -25 -48 -31 -48
-11 0 6 9 21 20 33 23 24 19 50 -10 65 -24 13 -48 3 -56 -22 -6 -21 6 -41 13
-20 6 17 33 15 33 -2 0 -8 -9 -24 -19 -37 -19 -23 -19 -24 -40 -5 -27 24 -27
66 0 100 26 33 73 35 106 4z m-736 -73 c140 -83 255 -121 345 -113 24 2 44 1
44 -2 0 -4 -35 -27 -77 -52 -98 -59 -220 -103 -239 -87 -9 7 -84 10 -231 8
-216 -2 -219 -2 -282 25 -36 14 -94 45 -130 69 l-65 42 84 6 c50 4 107 15 137
27 65 27 178 84 218 111 50 35 92 27 196 -34z m-824 -69 l-14 -57 33 32 c30
30 54 32 54 6 0 -18 -99 -99 -111 -91 -8 4 -9 25 -5 61 l6 54 -30 -23 c-24
-18 -33 -19 -43 -9 -10 10 -1 22 42 62 47 44 56 49 68 36 13 -13 13 -22 0 -71z
m1400 2 c12 -11 40 -24 60 -27 48 -8 53 -36 6 -36 -29 0 -31 -2 -26 -26 3 -15
-1 -30 -10 -37 -12 -11 -16 -7 -21 22 -4 20 -18 49 -32 66 -14 17 -23 37 -20
45 7 20 16 19 43 -7z m-1207 -178 c14 -27 -19 -65 -48 -56 -32 11 -39 46 -13
67 24 20 47 16 61 -11z m1118 18 c19 -19 14 -56 -8 -68 -40 -22 -74 46 -36 72
16 11 30 10 44 -4z m-183 -48 c4 -6 1 -17 -5 -25 -9 -11 -8 -25 6 -61 17 -46
15 -56 -13 -55 -4 0 -14 19 -24 43 -11 29 -23 44 -38 46 -32 5 -25 25 17 44
46 20 49 20 57 8z m-775 -15 c7 -8 10 -22 6 -30 -5 -13 -9 -13 -26 -3 -25 16
-54 1 -58 -30 -2 -15 4 -25 23 -34 27 -12 29 -31 2 -36 -23 -5 -67 42 -67 71
0 40 36 77 75 77 18 0 38 -7 45 -15z m408 8 c-32 -2 -84 -2 -115 0 -32 2 -6 3
57 3 63 0 89 -1 58 -3z m251 -70 c25 -89 9 -123 -57 -123 -35 0 -44 11 -60 66
-16 55 -15 64 6 64 13 0 23 -13 33 -47 9 -30 20 -48 29 -48 19 0 25 38 11 77
-9 24 -8 34 1 40 22 13 27 9 37 -29z m-545 18 c8 -12 20 -151 13 -151 -16 0
-37 14 -37 25 0 16 -41 27 -56 14 -6 -5 -19 -7 -27 -3 -14 5 -10 16 24 65 37
55 68 74 83 50z m112 -78 c-6 -48 -4 -53 14 -53 13 0 20 -7 20 -20 0 -22 -3
-23 -50 -14 l-32 7 6 65 c8 76 11 83 33 75 12 -5 14 -16 9 -60z m274 36 c0
-15 -5 -19 -19 -14 -23 7 -44 -17 -39 -47 2 -19 9 -23 36 -21 29 1 33 -2 30
-20 -4 -31 -59 -36 -87 -8 -25 25 -28 77 -5 109 21 31 84 32 84 1z m-146 -11
c0 -10 -1 -40 -2 -68 -2 -43 -5 -50 -22 -50 -18 0 -20 7 -20 71 0 67 1 70 23
67 13 -2 22 -10 21 -20z"/>
<path d="M1610 2605 c-7 -8 -10 -25 -6 -40 8 -33 53 -35 65 -2 17 44 -29 78
-59 42z"/>
<path d="M1705 2293 c-121 -28 -125 -38 -5 -12 47 9 72 17 55 17 -16 0 -39 -2
-50 -5z"/>
<path d="M324 1955 c25 -19 36 -19 36 0 0 10 -10 15 -27 15 -27 -1 -27 -1 -9
-15z"/>
<path d="M1240 1780 c-9 -18 -8 -20 15 -20 27 0 28 1 19 24 -8 22 -21 20 -34
-4z"/>
<path d="M1235 1730 c3 -5 15 -10 26 -10 10 0 19 5 19 10 0 6 -12 10 -26 10
-14 0 -23 -4 -19 -10z"/>
<path d="M1076 1653 c-4 -26 -8 -60 -10 -74 -1 -14 -6 -30 -9 -36 -4 -6 -4
-13 0 -17 3 -3 96 -6 205 -6 169 0 198 2 198 15 0 8 -3 15 -7 15 -8 0 -11 28
-12 113 -1 23 -5 36 -11 32 -6 -3 -10 -12 -10 -19 0 -8 -7 -19 -15 -26 -21
-17 -19 -43 6 -74 l20 -26 -171 0 -172 0 20 33 20 32 -23 43 -23 43 -6 -48z"/>
<path d="M1240 1690 c0 -5 9 -10 20 -10 11 0 20 5 20 10 0 6 -9 10 -20 10 -11
0 -20 -4 -20 -10z"/>
<path d="M1237 1663 c-15 -14 -6 -23 23 -23 22 0 28 4 24 15 -6 15 -35 20 -47
8z"/>
<path d="M1220 1615 c0 -11 11 -15 40 -15 29 0 40 4 40 15 0 11 -11 15 -40 15
-29 0 -40 -4 -40 -15z"/>
<path d="M1210 1570 c0 -5 23 -10 51 -10 31 0 48 4 44 10 -3 6 -26 10 -51 10
-24 0 -44 -4 -44 -10z"/>
<path d="M1259 1503 c-141 -3 -147 -4 -142 -23 5 -19 14 -20 149 -20 l144 0 0
25 c0 14 -1 24 -2 23 -2 -1 -69 -4 -149 -5z"/>
<path d="M1094 1441 c-16 -17 17 -21 166 -21 223 0 227 18 4 22 -91 2 -168 1
-170 -1z"/>
<path d="M1220 1389 c0 -6 -7 -9 -15 -6 -8 4 -17 2 -20 -3 -4 -6 28 -9 82 -8
48 0 73 3 56 5 -18 2 -33 8 -33 14 0 5 -16 9 -35 9 -19 0 -35 -5 -35 -11z"/>
<path d="M1220 1350 c0 -5 16 -10 35 -10 19 0 35 5 35 10 0 6 -16 10 -35 10
-19 0 -35 -4 -35 -10z"/>
<path d="M2184 1686 c-12 -31 0 -51 30 -51 36 0 56 26 37 49 -17 20 -60 21
-67 2z"/>
<path d="M275 1599 c-10 -30 16 -53 50 -45 21 5 26 12 23 34 -2 22 -9 28 -35
30 -25 3 -33 -1 -38 -19z"/>
<path d="M2120 1375 c-20 -24 0 -50 36 -50 26 0 29 4 29 30 0 25 -4 31 -26 33
-15 2 -31 -4 -39 -13z"/>
<path d="M414 1218 c-18 -20 -18 -21 -1 -15 10 4 25 7 33 7 8 0 11 6 8 15 -8
20 -18 19 -40 -7z"/>
<path d="M1210 1190 c0 -5 20 -10 45 -10 25 0 45 5 45 10 0 6 -20 10 -45 10
-25 0 -45 -4 -45 -10z"/>
<path d="M1210 1150 c0 -5 20 -10 45 -10 25 0 45 5 45 10 0 6 -20 10 -45 10
-25 0 -45 -4 -45 -10z"/>
<path d="M1210 1120 c0 -5 23 -10 50 -10 28 0 50 5 50 10 0 6 -22 10 -50 10
-27 0 -50 -4 -50 -10z"/>
<path d="M1205 1080 c-4 -6 15 -10 49 -10 31 0 56 5 56 10 0 6 -22 10 -49 10
-28 0 -53 -4 -56 -10z"/>
<path d="M1205 1040 c3 -5 28 -10 56 -10 27 0 49 5 49 10 0 6 -25 10 -56 10
-34 0 -53 -4 -49 -10z"/>
<path d="M1065 1010 c-3 -6 0 -12 7 -15 25 -10 378 0 378 10 0 14 -376 19
-385 5z"/>
<path d="M1090 960 c0 -19 7 -20 170 -20 94 0 170 2 170 4 0 2 -3 11 -6 20 -5
14 -30 16 -170 16 -157 0 -164 -1 -164 -20z"/>
<path d="M980 781 c-13 -26 -13 -31 5 -31 9 0 15 9 15 25 0 30 -6 32 -20 6z"/>
<path d="M70 170 l0 -130 1192 2 1192 3 0 125 1 125 -1193 3 -1192 2 0 -130z
m665 95 c14 -13 25 -29 25 -35 0 -5 7 -10 15 -10 8 0 15 -4 15 -10 0 -5 -4
-10 -10 -10 -6 0 -10 -27 -10 -61 0 -81 -24 -77 -28 4 -3 49 -6 57 -22 57 -18
0 -20 -7 -20 -61 0 -44 -3 -60 -12 -57 -7 3 -14 16 -16 30 -2 20 -10 27 -33
30 -44 7 -60 -18 -29 -43 14 -10 21 -19 15 -19 -10 0 -75 60 -75 71 0 4 9 9
21 12 29 8 19 31 -14 35 -27 3 -27 3 -27 -57 0 -34 -2 -61 -4 -61 -20 0 -36
16 -36 36 0 27 -19 31 -50 12 -16 -11 -23 -10 -37 6 -13 13 -15 20 -5 23 21 8
14 43 -8 43 -18 0 -20 -7 -20 -61 0 -44 -3 -60 -12 -57 -7 3 -14 19 -16 36 -3
34 -27 48 -62 37 -21 -7 -27 -30 -10 -40 6 -3 10 -11 10 -17 0 -14 -28 9 -41
34 -16 30 6 48 57 48 24 0 44 5 44 10 0 6 -25 10 -55 10 -30 0 -55 5 -55 10 0
6 93 10 260 10 143 0 260 4 260 8 0 14 -23 32 -42 32 -10 0 -18 7 -18 15 0 22
18 18 45 -10z m812 -10 c35 -44 61 -47 55 -5 -3 24 0 30 21 35 28 8 104 -22
126 -48 11 -13 31 -17 98 -17 80 0 83 1 73 19 -15 28 -13 39 10 46 28 9 49 -6
22 -16 -14 -6 -19 -14 -15 -28 5 -20 12 -21 184 -21 113 0 179 -4 179 -10 0
-5 -4 -10 -10 -10 -6 0 -10 -27 -10 -60 0 -58 -16 -83 -27 -42 -3 14 -11 18
-29 14 -27 -5 -74 21 -74 42 0 8 9 16 21 19 29 8 14 27 -22 27 -29 0 -29 0
-29 -61 0 -44 -3 -60 -12 -57 -7 3 -14 17 -16 31 -3 21 -9 27 -28 27 -13 0
-24 -4 -24 -10 0 -16 -26 -12 -41 7 -11 13 -11 17 -1 20 6 3 12 14 12 25 0 14
-6 19 -22 16 -21 -3 -23 -9 -24 -58 0 -30 -4 -54 -7 -52 -4 1 -11 2 -17 2 -5
0 -10 25 -10 55 0 53 -1 55 -26 55 -25 0 -26 -2 -21 -35 7 -42 -2 -50 -32 -28
-16 11 -20 18 -12 26 19 19 12 37 -14 37 -24 0 -25 -3 -25 -61 0 -44 -3 -60
-12 -57 -7 3 -14 21 -16 41 -3 33 -6 37 -31 37 -37 0 -59 -24 -41 -45 9 -11 9
-15 1 -15 -16 0 -35 45 -28 64 5 11 20 16 52 16 25 0 45 5 45 10 0 6 -28 10
-65 10 l-65 0 0 -61 c0 -81 -24 -77 -28 4 -3 49 -6 57 -22 57 -18 0 -20 -7
-20 -61 0 -81 -24 -77 -28 4 -3 49 -6 57 -22 57 -18 0 -20 -7 -20 -60 0 -37
-4 -60 -11 -60 -6 0 -13 8 -16 18 -3 14 -12 17 -33 14 -22 -3 -35 2 -53 22
-32 34 -56 35 -49 1 4 -22 1 -25 -24 -25 -31 0 -64 25 -64 49 0 11 4 9 16 -7
8 -12 24 -22 36 -22 17 0 19 4 14 25 -6 23 -3 25 24 25 16 0 30 -4 30 -9 0 -5
9 -7 20 -4 46 12 10 28 -68 31 -45 2 -82 7 -82 12 0 6 63 10 155 10 85 0 155
4 155 8 0 14 -23 32 -42 32 -10 0 -18 7 -18 15 0 26 28 16 57 -20z m-417 -45
c0 -5 -4 -10 -10 -10 -6 0 -10 -27 -10 -61 0 -81 -24 -77 -28 4 -3 49 -6 57
-22 57 -18 0 -20 -7 -20 -61 0 -44 -3 -60 -12 -57 -7 3 -14 17 -16 31 -3 21
-9 27 -28 27 -13 0 -24 -4 -24 -10 0 -16 -26 -12 -41 7 -11 13 -11 17 -1 20
17 6 15 43 -3 43 -8 0 -15 5 -15 10 0 6 45 10 115 10 70 0 115 -4 115 -10z"/>
<path d="M457 202 c-25 -5 -17 -36 11 -40 16 -3 22 2 22 17 0 23 -8 29 -33 23z"/>
<path d="M618 175 c2 -14 8 -25 12 -25 22 0 40 14 40 31 0 14 -7 19 -29 19
-25 0 -28 -3 -23 -25z"/>
<path d="M1620 245 c0 -21 18 -27 81 -23 l54 3 -32 18 c-41 22 -103 23 -103 2z"/>
<path d="M1427 184 c4 -10 -1 -22 -12 -30 -25 -19 -11 -30 23 -18 19 7 28 17
30 37 3 23 0 27 -22 27 -19 0 -24 -4 -19 -16z"/>
<path d="M2040 180 c0 -15 7 -20 25 -20 18 0 25 5 25 20 0 15 -7 20 -25 20
-18 0 -25 -5 -25 -20z"/>
<path d="M2207 184 c4 -10 -1 -22 -12 -30 -25 -19 -11 -30 23 -18 19 7 28 17
30 37 3 23 0 27 -22 27 -19 0 -24 -4 -19 -16z"/>
<path d="M960 180 c0 -15 7 -20 25 -20 18 0 25 5 25 20 0 15 -7 20 -25 20 -18
0 -25 -5 -25 -20z"/>
</g>
</svg>
