<?xml version="1.0" encoding="UTF-8"?>
<svg version="1.1" xmlns="http://www.w3.org/2000/svg" width="512" height="512">
<path d="M0 0 C1.43094941 0.53762624 2.86244647 1.07379679 4.29444885 1.60861206 C8.11392524 3.0396373 11.92557103 4.49050283 15.73601532 5.94537735 C19.72072167 7.46273845 23.71251015 8.96123443 27.70361328 10.46166992 C34.79427969 13.1302856 41.87920305 15.81373512 48.96115112 18.50539303 C55.28752123 20.90953847 61.61918003 23.29947562 67.953125 25.68359375 C73.24544167 27.67668219 78.53705168 29.67150698 83.82421875 31.67822266 C93.62100437 35.39644958 103.42784139 39.08642971 113.24663544 42.74616432 C115.18846045 43.47010172 117.13006696 44.19462183 119.07159424 44.9193573 C119.7106218 45.15788327 120.34964935 45.39640924 121.00804138 45.64216328 C122.29655148 46.12312613 123.5850545 46.60410793 124.87355042 47.08510876 C128.0275653 48.2621405 131.18239259 49.43688848 134.33831787 50.60879517 C137.84160004 51.9097646 141.3428365 53.21610989 144.84375 54.5234375 C145.88434067 54.90810181 146.92493134 55.29276611 147.99705505 55.68908691 C163.92946833 61.65599386 163.92946833 61.65599386 167.66796875 66.41015625 C168.36019531 67.2609375 168.36019531 67.2609375 169.06640625 68.12890625 C172.21035854 72.69464588 172.60414678 76.39948839 172.5307312 81.89588928 C172.52454612 82.68920499 172.51836103 83.4825207 172.51198852 84.29987627 C172.36756076 93.62732079 171.44315904 102.86557583 170.48876953 112.13842773 C170.2942229 114.09357889 170.10044924 116.04880709 169.90737915 118.00410461 C169.38645567 123.25651377 168.85454714 128.50775499 168.32025003 133.75881839 C167.76005676 139.28100687 167.20939776 144.80414711 166.65744019 150.3271637 C165.73034299 159.58974109 164.79638648 168.85160608 163.85791016 178.11303711 C162.77520503 188.79831513 161.70186667 199.48450095 160.63385022 210.17125648 C159.49231029 221.59274674 158.34398023 233.01354697 157.19365835 244.4341557 C156.86429047 247.7087164 156.53617767 250.98340081 156.20834732 254.25811577 C155.69216803 259.410829 155.17141815 264.5630612 154.64721298 269.71496391 C154.45624383 271.59850909 154.26674994 273.48220455 154.07888794 275.36606216 C151.13057097 304.9002488 151.13057097 304.9002488 140.54931641 314.06396484 C136.9643736 316.99724092 133.15140187 319.54136432 129.29296875 322.09765625 C123.16774326 326.21765629 117.15940539 330.42918136 111.29296875 334.91015625 C104.80050982 339.86204556 98.1238592 344.48350316 91.359375 349.0546875 C86.22764013 352.53960956 81.22520092 356.14895707 76.29296875 359.91015625 C69.80006076 364.8614885 63.12389715 369.48347751 56.359375 374.0546875 C51.22764013 377.53960956 46.22520092 381.14895707 41.29296875 384.91015625 C34.80676689 389.85637457 28.13938908 394.47664125 21.37915039 399.03930664 C16.04188742 402.66041838 10.85725138 406.4352083 5.73046875 410.34765625 C-12.27602538 424.0518117 -12.27602538 424.0518117 -23.70703125 422.91015625 C-30.11706534 420.94762753 -34.82628239 417.99204327 -40.14453125 413.97265625 C-41.73630188 412.79595826 -43.32876617 411.62019809 -44.921875 410.4453125 C-45.72093262 409.85250488 -46.51999023 409.25969727 -47.34326172 408.64892578 C-50.92571068 406.01370563 -54.56442044 403.46122033 -58.20703125 400.91015625 C-64.83721578 396.25017165 -71.41433828 391.52069625 -77.9765625 386.765625 C-83.02785333 383.11020037 -88.10655477 379.49657663 -93.20703125 375.91015625 C-99.83625837 371.24878876 -106.41431662 366.52071194 -112.9765625 361.765625 C-118.02785333 358.11020037 -123.10655477 354.49657663 -128.20703125 350.91015625 C-134.8319339 346.25182953 -141.40646062 341.52786056 -147.96337891 336.77441406 C-153.14011835 333.02686336 -158.35203708 329.33290496 -163.58203125 325.66015625 C-187.86177904 308.54611262 -187.86177904 308.54611262 -190.70703125 299.91015625 C-191.21338133 296.95902513 -191.49976475 293.99502251 -191.78515625 291.01538086 C-191.92272701 289.67213462 -191.92272701 289.67213462 -192.06307697 288.30175209 C-192.36808193 285.30599879 -192.66251774 282.3093015 -192.95703125 279.3125 C-193.17303981 277.17025898 -193.38970478 275.02808406 -193.60697937 272.88597107 C-194.19367281 267.08282661 -194.77118281 261.27880226 -195.34670639 255.47454071 C-195.94909614 249.41112882 -196.55852126 243.34842409 -197.16723633 237.28564453 C-197.92142033 229.76868017 -198.67444797 222.25160471 -199.42353821 214.73413086 C-201.02230475 198.69437954 -202.6487574 182.65770102 -204.29717636 166.62298012 C-204.99923892 159.78371209 -205.69597642 152.94389989 -206.39233208 146.10404873 C-206.94431111 140.68520815 -207.49913346 135.26669308 -208.06079102 129.84884644 C-208.58803472 124.76081623 -209.10647958 119.67196097 -209.61857033 114.58238411 C-209.80581766 112.7362759 -209.99610798 110.89047296 -210.18991661 109.04504204 C-211.13617231 100.02007212 -211.8746747 91.05019739 -211.95239258 81.97119141 C-211.96343616 81.22918173 -211.97447973 80.48717205 -211.98585796 79.72267723 C-211.96749877 74.8969395 -211.310963 71.38594827 -208.38671875 67.515625 C-207.83242187 66.98582031 -207.278125 66.45601563 -206.70703125 65.91015625 C-205.59714844 64.79145142 -205.59714844 64.79145142 -204.46484375 63.65014648 C-199.39589789 59.47157092 -192.9957481 57.68314859 -186.90234375 55.46484375 C-185.49327962 54.94161098 -184.08462893 54.41726367 -182.67636108 53.89189148 C-179.65178245 52.76611511 -176.62454856 51.64792716 -173.5949707 50.53567505 C-168.77831256 48.76727293 -163.96781499 46.98253076 -159.15820312 45.19506836 C-153.27904828 43.01125037 -147.39850427 40.83125561 -141.51616287 38.65603542 C-130.68085711 34.64859258 -119.85854278 30.60724574 -109.04296875 26.546875 C-108.24649052 26.24787544 -107.45001228 25.94887589 -106.62939835 25.64081573 C-102.68111607 24.15842595 -98.73304765 22.6754677 -94.78509521 21.19219971 C-90.34837646 19.52546259 -85.91087377 17.86082181 -81.47314453 16.19677734 C-80.76942152 15.93275368 -80.06569851 15.66873001 -79.34065056 15.39670563 C-75.88163013 14.09918811 -72.42180471 12.80390686 -68.96017456 11.5133667 C-62.65187045 9.15888004 -56.35420229 6.78331772 -50.08367157 4.32969379 C-47.17023547 3.19113675 -44.25217077 2.0647252 -41.33369446 0.9391613 C-39.95930117 0.40514833 -38.58719361 -0.13479329 -37.21769714 -0.68124199 C-22.80156011 -6.43080469 -14.29561276 -5.50894208 0 0 Z M-27.15966797 42.32446289 C-27.99275482 42.63704041 -28.82584167 42.94961792 -29.68417358 43.27166748 C-30.57601349 43.61772034 -31.46785339 43.96377319 -32.38671875 44.3203125 C-33.80750229 44.85788177 -33.80750229 44.85788177 -35.25698853 45.40631104 C-38.36886884 46.58602267 -41.47532499 47.77939324 -44.58203125 48.97265625 C-46.76849147 49.80400162 -48.95534565 50.63431156 -51.14257812 51.46362305 C-55.5781735 53.14651421 -60.01196407 54.8340283 -64.44433594 56.52539062 C-72.24350011 59.49900874 -80.05897543 62.42836482 -87.8772583 65.35125732 C-91.84236873 66.83431728 -95.80585084 68.32171709 -99.76953125 69.80859375 C-101.48046105 70.45021584 -103.19139889 71.0918165 -104.90234375 71.73339844 C-105.81790039 72.07673218 -106.73345703 72.42006592 -107.67675781 72.77380371 C-120.13924154 77.44723511 -132.60172526 82.1206665 -145.06420898 86.7940979 C-146.0043132 87.14663698 -146.0043132 87.14663698 -146.96340942 87.50629807 C-153.5446167 89.97425079 -160.12582397 92.44220352 -166.70703125 94.91015625 C-166.10771179 106.72084249 -165.31325689 118.49591382 -164.28686523 130.27685547 C-164.14515 131.92504009 -164.0034786 133.57322848 -163.86184692 135.22142029 C-162.57525038 150.11070254 -161.20273081 164.99221068 -159.80432034 179.8713665 C-158.86893951 189.84073758 -157.96179561 199.81111762 -157.12231445 209.7890625 C-156.38542442 218.54718976 -155.59656704 227.29880842 -154.74533707 236.04659092 C-154.29813844 240.65995963 -153.87611764 245.2723706 -153.51647758 249.89345932 C-152.96462136 269.62557693 -152.96462136 269.62557693 -144.99380493 286.76434326 C-141.77517453 289.49629972 -138.41503701 291.44859269 -134.53943062 293.09872818 C-131.9663479 294.23814767 -129.80204024 295.83089386 -127.55078125 297.50390625 C-126.10483867 298.47560028 -124.65695718 299.44441611 -123.20703125 300.41015625 C-116.57352037 304.88642782 -110.12804217 309.53880184 -103.765625 314.390625 C-98.69050095 318.23480445 -93.48160726 321.8457959 -88.20703125 325.41015625 C-81.57641622 329.89087684 -75.12826621 334.538631 -68.765625 339.390625 C-63.69049792 343.23480674 -58.48158375 346.84575396 -53.20703125 350.41015625 C-45.70766568 355.47869298 -38.42131395 360.76811244 -31.22265625 366.25390625 C-27.77028269 368.88281333 -24.24902987 371.40351107 -20.70703125 373.91015625 C-16.14450487 371.73067837 -12.11664522 368.89199764 -7.95703125 366.03515625 C-7.11011719 365.45507812 -6.26320313 364.875 -5.390625 364.27734375 C0.60267386 360.14403419 6.44297938 355.84565192 12.23144531 351.43212891 C18.08800121 346.99538817 24.14015112 342.8785932 30.2265625 338.765625 C35.35829737 335.28070294 40.36073658 331.67135543 45.29296875 327.91015625 C51.78587674 322.958824 58.46204035 318.33683499 65.2265625 313.765625 C71.02310542 309.82923686 76.63515383 305.70235997 82.20361328 301.45166016 C88.37438823 296.77429036 94.75267656 292.41974539 101.17578125 288.09765625 C101.9440625 287.57945312 102.71234375 287.06125 103.50390625 286.52734375 C104.18759277 286.06956543 104.8712793 285.61178711 105.57568359 285.14013672 C108.36080908 283.14533117 109.21524463 282.35527289 109.82017708 278.89089775 C109.95107168 277.58312433 110.08196629 276.27535091 110.21682739 274.927948 C110.32964658 273.8374177 110.32964658 273.8374177 110.44474494 272.7248565 C110.6957807 270.27682518 110.93401421 267.82771466 111.17236328 265.37841797 C111.34924219 263.62750243 111.52689323 261.87666474 111.70526123 260.12590027 C112.18848833 255.35989616 112.66055626 250.59284513 113.13048029 245.82551336 C113.62372658 240.83849792 114.12641097 235.85243357 114.62789917 230.86624146 C115.4693955 222.48531502 116.30404759 214.10372932 117.13427734 205.72167969 C118.09345171 196.03825735 119.06150714 186.35575684 120.03480065 176.67374408 C121.07096933 166.36566847 122.10105626 156.05699198 123.12913275 145.74810648 C123.42548574 142.78030309 123.72291894 139.81260956 124.02057266 136.84493637 C124.48894914 132.17175842 124.9532061 127.49818835 125.41432953 122.82428932 C125.58389514 121.11175106 125.75478783 119.39934358 125.92712784 117.68708229 C126.16279896 115.34315827 126.39354391 112.99879827 126.62307739 110.65426636 C126.75321795 109.34423079 126.8833585 108.03419521 127.0174427 106.68446159 C127.30591863 102.73276181 127.34012538 98.87025799 127.29296875 94.91015625 C126.5508313 94.63185471 125.80869385 94.35355316 125.04406738 94.06681824 C123.98216187 93.66860367 122.92025635 93.2703891 121.82617188 92.86010742 C120.61450348 92.4057431 119.40283508 91.95137878 118.15444946 91.48324585 C115.37590645 90.44129817 112.59740923 89.39922847 109.81893921 88.35708618 C102.72739478 85.69732347 95.63557031 83.03831626 88.542593 80.38237667 C84.38889674 78.82700123 80.23541242 77.27106041 76.08203125 75.71484375 C75.23669956 75.39811769 74.39136787 75.08139164 73.52042007 74.75506783 C61.41185162 70.21707325 49.31424511 65.65086737 37.22364044 61.06524467 C32.26530349 59.18591912 27.30499134 57.31181274 22.34459305 55.43793583 C17.58522407 53.63930316 12.82923381 51.8320697 8.07542992 50.01878357 C5.11397833 48.89155458 2.14946483 47.77256367 -0.81595993 46.6558342 C-2.18884095 46.13688937 -3.56042985 45.61451104 -4.93059158 45.0884285 C-6.80327737 44.36989054 -8.68107606 43.66472082 -10.55908203 42.96020508 C-11.60766388 42.56199051 -12.65624573 42.16377594 -13.73660278 41.75349426 C-18.55871993 40.38444103 -22.49988227 40.54465053 -27.15966797 42.32446289 Z " fill="#000000" transform="translate(275.70703125,47.08984375)"/>
<path d="M0 0 C3.04762459 2.76551628 4.63185728 5.66232836 6.34545898 9.32641602 C6.68260925 10.02418655 7.01975952 10.72195709 7.36712646 11.44087219 C11.72918397 20.55521018 15.78922414 29.81050287 19.86108398 39.05688477 C20.73567786 41.03492897 21.61068709 43.01278957 22.48608398 44.99047852 C24.29822725 49.08531546 26.10861025 53.18092363 27.91772461 57.27709961 C31.72178173 65.88650654 35.54771033 74.4861772 39.37316895 83.08609009 C41.45348099 87.7634074 43.5321974 92.44143376 45.61108398 97.11938477 C46.44440977 98.99438812 47.2777431 100.86938812 48.11108398 102.74438477 C53.11108397 113.99438474 53.11108397 113.99438474 54.36080933 116.80627441 C55.19505064 118.68331227 56.02929951 120.56034677 56.86355591 122.43737793 C58.93305886 127.09367129 61.00243498 131.75002092 63.0715332 136.40649414 C66.98633057 145.21631466 70.90250134 154.02551825 74.82281494 162.83288574 C76.68027919 167.00605737 78.53706595 171.17953027 80.39379883 175.35302734 C81.28148 177.34780743 82.16949533 179.34243886 83.05786133 181.33691406 C84.28737864 184.09736516 85.51575734 186.8583203 86.74389648 189.61938477 C87.10750275 190.43491821 87.47110901 191.25045166 87.84573364 192.09069824 C91.66786862 200.690073 94.6788525 208.20268706 91.92358398 217.75219727 C89.17349986 223.77946497 84.82858354 227.60153201 78.73608398 230.18188477 C71.75332157 232.48738887 66.50291539 231.69589418 59.88452148 228.92797852 C52.59053597 223.92746267 49.3990405 216.35804395 45.92358398 208.49438477 C45.41537109 207.36774414 44.9071582 206.24110352 44.38354492 205.08032227 C42.7803263 201.51541366 41.19506502 197.94287688 39.61108398 194.36938477 C38.53724072 191.97077913 37.46302702 189.57233929 36.38842773 187.17407227 C35.37806674 184.90639803 34.36890714 182.63818804 33.36108398 180.36938477 C32.88324463 179.29575684 32.40540527 178.22212891 31.91308594 177.1159668 C31.47826904 176.12709473 31.04345215 175.13822266 30.59545898 174.11938477 C30.21099609 173.24797852 29.8265332 172.37657227 29.43041992 171.47875977 C28.61108398 169.36938477 28.61108398 169.36938477 28.61108398 167.36938477 C0.23108398 167.36938477 -28.14891602 167.36938477 -57.38891602 167.36938477 C-58.37891602 170.33938477 -59.36891602 173.30938477 -60.38891602 176.36938477 C-61.03193647 177.97601997 -61.69965907 179.57341099 -62.41015625 181.15136719 C-62.77741318 181.97219284 -63.1446701 182.79301849 -63.52305603 183.63871765 C-63.91062576 184.49214249 -64.2981955 185.34556732 -64.69750977 186.22485352 C-65.10550308 187.13012283 -65.5134964 188.03539215 -65.93385315 188.96809387 C-66.7914171 190.86742524 -67.65122587 192.76574452 -68.51318359 194.66308594 C-69.82605678 197.55609317 -71.12838968 200.45368693 -72.42993164 203.35180664 C-73.26849371 205.20560766 -74.10766563 207.05913297 -74.94750977 208.91235352 C-75.33305527 209.77185104 -75.71860077 210.63134857 -76.11582947 211.51689148 C-79.84468468 219.68482866 -83.67786935 226.76216781 -92.26391602 230.68188477 C-100.12914303 232.41223471 -106.39701996 231.36809455 -113.38891602 227.36938477 C-117.97171761 223.39007968 -120.70657806 218.91584863 -121.86108398 212.9152832 C-122.42882048 202.39782122 -117.83084635 193.91885908 -113.51391602 184.61938477 C-112.69149034 182.80393433 -111.87121734 180.98750734 -111.05297852 179.17016602 C-109.35696939 175.41261792 -107.64858941 171.66110086 -105.92895508 167.91430664 C-103.53491486 162.69643931 -101.17063441 157.46567786 -98.81860352 152.22875977 C-98.45179474 151.4121991 -98.08498596 150.59563843 -97.70706177 149.7543335 C-96.9699002 148.11323154 -96.23280888 146.47209802 -95.49578857 144.83093262 C-94.38082463 142.35139051 -93.26255208 139.87336585 -92.14331055 137.39575195 C-86.81206394 125.58809535 -81.57961716 113.73941917 -76.38891602 101.86938477 C-69.69919799 86.5732767 -62.90844922 71.32599591 -56.02905273 56.11425781 C-52.25823913 47.77190888 -48.51866001 39.41779391 -44.84204102 31.03344727 C-44.10658236 29.36065261 -43.37106898 27.68788201 -42.63549805 26.01513672 C-41.2533811 22.87129404 -39.88084244 19.72350214 -38.51342773 16.57324219 C-37.89156731 15.15746972 -37.26935413 13.74185213 -36.64672852 12.32641602 C-36.37459534 11.69188507 -36.10246216 11.05735413 -35.82208252 10.40359497 C-32.41834909 2.72059527 -28.22898867 -1.36994195 -20.45141602 -4.38061523 C-12.65229593 -5.32596312 -6.54017685 -4.46416363 0 0 Z M-15.38891602 72.36938477 C-18.20454991 78.6664551 -21.01577386 84.96548049 -23.82397461 91.26586914 C-24.77934538 93.4079212 -25.73571606 95.5495276 -26.69311523 97.69067383 C-28.07092672 100.77250762 -29.44510677 103.85593853 -30.81860352 106.93969727 C-31.24575653 107.89304962 -31.67290955 108.84640198 -32.11300659 109.8286438 C-32.71340256 111.17936478 -32.71340256 111.17936478 -33.32592773 112.55737305 C-33.67678436 113.34346954 -34.02764099 114.12956604 -34.38912964 114.93948364 C-35.52400691 117.69771241 -36.44574199 120.5398627 -37.38891602 123.36938477 C-22.20891602 123.36938477 -7.02891602 123.36938477 8.61108398 123.36938477 C5.67127624 115.72588463 2.77203237 108.22417678 -0.59594727 100.78735352 C-0.96620529 99.96229813 -1.33646332 99.13724274 -1.71794128 98.28718567 C-2.87585179 95.70894335 -4.03852299 93.13288297 -5.20141602 90.55688477 C-5.99795972 88.78554414 -6.79418594 87.01406071 -7.59008789 85.24243164 C-9.51938012 80.94976348 -11.45293829 76.65904168 -13.38891602 72.36938477 C-14.04891602 72.36938477 -14.70891602 72.36938477 -15.38891602 72.36938477 Z " fill="#000000" transform="translate(270.388916015625,110.630615234375)"/>
</svg>
