<?xml version="1.0" standalone="no"?>
<!DOCTYPE svg PUBLIC "-//W3C//DTD SVG 20010904//EN"
 "http://www.w3.org/TR/2001/REC-SVG-20010904/DTD/svg10.dtd">
<svg version="1.0" xmlns="http://www.w3.org/2000/svg"
 width="512.000000pt" height="512.000000pt" viewBox="0 0 512.000000 512.000000"
 preserveAspectRatio="xMidYMid meet">

<g transform="translate(0.000000,512.000000) scale(0.100000,-0.100000)"
fill="#000000" stroke="none">
<path d="M610 2823 c-68 -25 -145 -106 -166 -178 -32 -114 1 -246 81 -312 l30
-26 3 139 c2 89 -1 140 -8 142 -5 2 -10 11 -10 19 0 14 25 16 228 12 125 -3
194 -3 155 -1 l-73 3 0 34 c0 19 -4 37 -10 40 -5 3 -10 13 -10 21 0 10 14 14
55 14 30 0 55 4 55 9 0 14 -59 57 -110 80 -55 25 -155 27 -220 4z m230 -163
l0 -30 -140 0 -140 0 0 30 0 30 140 0 140 0 0 -30z"/>
<path d="M2290 2807 c-17 -8 -26 -22 -28 -42 -3 -42 8 -55 64 -69 56 -14 72
-46 33 -66 -23 -13 -69 0 -69 20 0 5 -9 10 -20 10 -18 0 -19 -3 -9 -22 17 -32
28 -38 80 -38 50 0 79 21 79 56 0 34 -23 54 -75 68 -43 10 -50 16 -50 37 0 20
6 25 32 27 22 2 35 -3 45 -17 9 -13 19 -17 27 -11 20 11 6 39 -24 50 -34 13
-55 12 -85 -3z"/>
<path d="M2505 2811 c-67 -28 -81 -155 -22 -196 45 -32 128 -11 140 35 7 27
-24 27 -41 0 -17 -28 -66 -27 -86 2 -29 41 -13 121 26 133 26 9 56 -3 63 -25
6 -20 35 -17 35 5 0 33 -74 63 -115 46z"/>
<path d="M2925 2806 c-59 -26 -75 -121 -29 -175 21 -26 33 -31 69 -31 65 0 88
24 93 97 4 52 1 63 -19 85 -29 32 -74 42 -114 24z m84 -42 c44 -56 9 -149 -52
-137 -37 7 -50 27 -51 77 -2 78 61 114 103 60z"/>
<path d="M3164 2813 c-33 -6 -55 -37 -61 -82 -12 -85 21 -131 92 -131 50 0 80
21 91 65 10 40 -2 106 -23 125 -20 20 -65 30 -99 23z m70 -38 c21 -22 29 -52
22 -90 -8 -40 -27 -57 -62 -57 -35 0 -55 22 -61 68 -9 69 58 122 101 79z"/>
<path d="M3623 2810 c-29 -12 -63 -67 -63 -103 0 -35 24 -83 49 -97 29 -15 83
-12 108 5 33 23 47 81 33 134 -9 34 -18 45 -45 57 -39 16 -51 16 -82 4z m77
-40 c25 -25 27 -95 3 -122 -22 -25 -79 -24 -93 1 -15 29 -12 93 6 119 19 28
57 29 84 2z"/>
<path d="M1180 2705 l0 -105 55 0 c42 0 60 5 75 20 24 24 26 63 5 80 -11 9
-13 16 -5 24 17 17 12 64 -9 76 -11 5 -42 10 -70 10 l-51 0 0 -105z m94 79 c9
-3 16 -16 16 -29 0 -17 -7 -24 -31 -29 -40 -8 -49 -1 -49 35 0 24 4 29 24 29
13 0 31 -3 40 -6z m17 -100 c20 -24 -1 -48 -45 -52 -35 -3 -36 -2 -36 32 0 34
2 36 34 36 18 0 39 -7 47 -16z"/>
<path d="M1370 2705 l0 -105 70 0 c56 0 70 3 70 15 0 12 -13 15 -55 15 -54 0
-55 0 -55 29 0 28 2 30 47 33 64 4 69 26 6 30 -44 3 -48 5 -51 30 -3 26 -1 27
49 30 31 2 54 8 57 16 3 9 -15 12 -67 12 l-71 0 0 -105z"/>
<path d="M1550 2705 c0 -87 3 -105 15 -105 11 0 15 11 15 39 0 66 47 67 73 0
11 -28 21 -39 36 -39 l21 0 -21 42 c-20 39 -20 43 -5 69 36 60 5 99 -79 99
l-55 0 0 -105z m91 75 c27 -15 24 -48 -5 -62 -35 -15 -56 -4 -56 30 0 43 20
53 61 32z"/>
<path d="M1740 2705 l0 -105 65 0 c51 0 65 3 65 15 0 11 -12 15 -50 15 l-50 0
0 90 c0 73 -3 90 -15 90 -12 0 -15 -18 -15 -105z"/>
<path d="M1910 2705 c0 -87 3 -105 15 -105 12 0 15 18 15 105 0 87 -3 105 -15
105 -12 0 -15 -18 -15 -105z"/>
<path d="M1990 2705 c0 -85 3 -105 15 -105 11 0 15 17 17 73 l3 72 48 -72 c67
-102 77 -98 77 32 0 85 -3 105 -15 105 -11 0 -15 -17 -17 -72 l-3 -73 -47 73
c-67 102 -78 97 -78 -33z"/>
<path d="M2660 2705 c0 -98 1 -105 20 -105 17 0 20 7 20 45 l0 45 44 0 45 0 3
-42 c2 -31 8 -44 21 -46 15 -3 17 7 17 102 0 99 -1 106 -20 106 -17 0 -20 -7
-20 -40 l0 -40 -45 0 -45 0 0 40 c0 33 -3 40 -20 40 -19 0 -20 -7 -20 -105z"/>
<path d="M3330 2705 l0 -105 70 0 c56 0 70 3 70 15 0 11 -12 15 -50 15 l-50 0
0 90 c0 83 -1 90 -20 90 -19 0 -20 -7 -20 -105z"/>
<path d="M3800 2705 c0 -87 3 -105 15 -105 11 0 15 12 15 45 l0 45 50 0 c38 0
50 4 50 15 0 11 -12 15 -50 15 -49 0 -50 1 -50 30 0 29 1 30 50 30 38 0 50 4
50 15 0 12 -14 15 -65 15 l-65 0 0 -105z"/>
<path d="M610 2408 c5 -131 5 -132 30 -139 61 -17 59 -21 62 131 l3 140 -50 0
-50 0 5 -132z"/>
<path d="M758 2401 l3 -139 33 8 c56 12 56 12 56 146 l0 124 -47 0 -48 0 3
-139z"/>
<path d="M898 2436 c4 -114 9 -121 50 -66 26 35 62 123 62 150 0 18 -7 20 -57
20 l-58 0 3 -104z"/>
<path d="M1600 2487 c-28 -14 -39 -59 -19 -83 6 -8 31 -19 55 -25 24 -6 49
-17 55 -25 18 -21 -7 -44 -48 -44 -21 0 -36 6 -39 15 -8 19 -34 20 -34 1 0
-23 41 -46 80 -46 48 0 80 24 80 60 0 34 -26 55 -82 65 -20 4 -39 14 -42 22
-14 37 47 59 78 28 8 -8 19 -15 25 -15 19 0 12 28 -11 44 -27 19 -64 20 -98 3z"/>
<path d="M2257 2484 c-24 -13 -28 -20 -25 -52 3 -35 5 -37 58 -52 47 -14 55
-19 55 -40 0 -21 -5 -26 -33 -28 -23 -2 -38 2 -46 13 -7 10 -21 15 -32 13 -18
-3 -17 -6 8 -31 50 -50 148 -29 148 33 0 34 -26 55 -82 65 -20 4 -39 14 -42
22 -14 37 47 59 78 28 19 -19 36 -19 36 -1 0 21 -39 46 -70 46 -14 -1 -38 -8
-53 -16z"/>
<path d="M2455 2488 c-26 -15 -35 -28 -35 -54 0 -29 20 -43 77 -58 41 -10 48
-16 48 -37 0 -20 -5 -24 -36 -27 -23 -2 -40 2 -49 12 -16 20 -40 21 -40 2 0
-42 111 -63 143 -28 22 24 22 65 0 84 -10 9 -35 18 -55 22 -41 8 -65 35 -46
54 17 17 63 15 78 -3 14 -17 40 -20 40 -6 0 17 -52 51 -79 51 -14 0 -35 -6
-46 -12z"/>
<path d="M3493 2488 c-24 -12 -53 -64 -53 -97 0 -34 26 -88 48 -100 37 -20 91
-13 117 14 21 20 25 34 25 80 0 49 -4 60 -29 86 -31 31 -68 37 -108 17z m87
-38 c43 -43 16 -140 -38 -140 -35 0 -49 10 -61 43 -30 78 45 151 99 97z"/>
<path d="M4318 2484 c-55 -30 -62 -143 -11 -184 37 -29 97 -27 128 5 21 20 25
34 25 80 0 49 -4 60 -29 86 -33 33 -70 37 -113 13z m92 -34 c24 -24 27 -86 4
-118 -18 -26 -75 -30 -94 -6 -20 23 -17 100 5 124 23 26 59 26 85 0z"/>
<path d="M1180 2385 l0 -105 39 0 c45 0 92 15 103 33 13 20 9 54 -7 67 -11 9
-13 16 -5 24 17 17 12 64 -9 76 -11 5 -42 10 -70 10 l-51 0 0 -105z m88 79
c35 -10 30 -51 -8 -59 -39 -8 -50 0 -50 36 0 30 11 35 58 23z m23 -100 c20
-24 -1 -48 -45 -52 -35 -3 -36 -2 -36 32 0 34 2 36 34 36 18 0 39 -7 47 -16z"/>
<path d="M1370 2405 c0 -102 15 -125 79 -125 61 0 81 32 81 131 0 64 -3 79
-15 79 -12 0 -15 -15 -15 -71 0 -85 -11 -109 -48 -109 -44 0 -52 16 -52 102 0
63 -3 78 -15 78 -12 0 -15 -16 -15 -85z"/>
<path d="M1770 2385 c0 -87 3 -105 15 -105 12 0 15 18 15 105 0 87 -3 105 -15
105 -12 0 -15 -18 -15 -105z"/>
<path d="M1850 2385 c0 -85 3 -105 15 -105 11 0 15 17 17 76 l3 75 49 -75 c67
-105 76 -101 76 29 0 85 -3 105 -15 105 -11 0 -15 -17 -17 -72 l-3 -73 -47 73
c-67 102 -78 97 -78 -33z"/>
<path d="M2060 2385 l0 -105 70 0 c56 0 70 3 70 15 0 12 -13 15 -55 15 l-55 0
0 35 0 35 50 0 c64 0 66 18 3 22 -44 3 -48 5 -51 31 -3 27 -2 27 52 27 43 0
56 3 56 15 0 12 -14 15 -70 15 l-70 0 0 -105z"/>
<path d="M2710 2475 c-8 -9 -10 -27 -6 -46 4 -23 1 -38 -14 -57 -22 -27 -19
-58 8 -79 18 -15 70 -17 91 -4 9 6 21 5 32 -2 22 -14 36 -3 20 16 -6 8 -8 27
-5 46 5 24 3 31 -10 31 -9 0 -16 -7 -16 -15 0 -22 -16 -18 -33 8 -14 22 -14
25 4 40 22 19 25 47 7 65 -17 17 -63 15 -78 -3z m60 -24 c0 -21 -23 -45 -33
-34 -4 3 -7 17 -7 30 0 16 6 23 20 23 13 0 20 -7 20 -19z m-10 -101 c23 -32
20 -50 -9 -50 -23 0 -41 19 -41 45 0 44 21 46 50 5z"/>
<path d="M2950 2385 c0 -87 3 -105 15 -105 12 0 15 18 15 105 0 87 -3 105 -15
105 -12 0 -15 -18 -15 -105z"/>
<path d="M3030 2385 c0 -87 3 -105 15 -105 12 0 15 15 15 78 l0 77 50 -77 c69
-108 80 -105 80 27 0 87 -3 105 -15 105 -12 0 -15 -14 -15 -70 0 -66 -10 -90
-24 -54 -14 36 -79 124 -92 124 -11 0 -14 -22 -14 -105z"/>
<path d="M3240 2386 c0 -88 3 -106 15 -106 12 0 15 15 15 78 l0 77 51 -77 c69
-108 79 -104 79 27 0 87 -3 105 -15 105 -12 0 -15 -14 -15 -70 0 -38 -3 -70
-7 -70 -5 1 -26 31 -48 68 -22 37 -48 68 -58 70 -15 3 -17 -7 -17 -102z"/>
<path d="M3650 2488 c0 -2 17 -48 38 -103 49 -129 60 -132 101 -23 18 46 36
93 41 106 8 18 6 22 -9 22 -14 0 -26 -18 -46 -75 -15 -41 -30 -73 -34 -71 -3
2 -17 36 -31 75 -18 52 -29 71 -42 71 -10 0 -18 -1 -18 -2z"/>
<path d="M3893 2473 c-5 -15 -52 -137 -70 -180 -3 -8 3 -13 14 -13 12 0 23 11
30 30 10 26 16 30 51 30 35 0 41 -3 51 -30 5 -16 17 -30 25 -30 22 0 21 2 -21
113 -28 75 -41 97 -55 97 -10 0 -21 -8 -25 -17z m45 -70 c11 -32 10 -33 -20
-33 -23 0 -29 3 -24 16 3 9 9 27 12 41 8 28 17 21 32 -24z"/>
<path d="M4000 2475 c0 -10 11 -15 35 -15 l35 0 0 -90 c0 -73 3 -90 15 -90 12
0 15 17 15 89 l0 90 32 3 c17 2 33 9 36 16 3 9 -18 12 -82 12 -70 0 -86 -3
-86 -15z"/>
<path d="M4200 2385 c0 -87 3 -105 15 -105 12 0 15 18 15 105 0 87 -3 105 -15
105 -12 0 -15 -18 -15 -105z"/>
<path d="M4510 2384 c0 -80 3 -105 13 -102 7 3 14 31 17 74 l5 69 48 -73 c26
-41 53 -72 60 -69 8 2 13 36 15 105 2 86 0 102 -13 102 -12 0 -15 -14 -15 -72
l-1 -73 -22 26 c-12 14 -34 47 -49 73 -45 77 -58 64 -58 -60z"/>
</g>
</svg>
