<?xml version="1.0" encoding="UTF-8"?>
<svg version="1.1" xmlns="http://www.w3.org/2000/svg" width="512" height="512">
<path d="M0 0 C1.75851953 -0.00230609 3.5170381 -0.0054836 5.27555466 -0.00945449 C10.09494176 -0.01779076 14.91424949 -0.0136825 19.73363686 -0.00748205 C24.93615884 -0.00295381 30.13866725 -0.00994318 35.34118652 -0.01544189 C45.52784529 -0.02433354 55.71447457 -0.02241489 65.90113449 -0.01661661 C74.18030794 -0.01209924 82.45947313 -0.01148755 90.73864746 -0.01366425 C91.91713343 -0.01397071 93.09561941 -0.01427718 94.30981708 -0.01459293 C96.70391369 -0.01523238 99.0980103 -0.01588081 101.49210691 -0.01653811 C123.93977942 -0.02224074 146.38743559 -0.01568457 168.83510542 -0.00493738 C188.09483107 0.00399807 207.3545326 0.002446 226.61425781 -0.0067749 C248.98179649 -0.01747872 271.34932085 -0.02169142 293.71686172 -0.01555037 C296.1021347 -0.01491328 298.48740768 -0.01428454 300.87268066 -0.01366425 C302.04627034 -0.01335569 303.21986001 -0.01304714 304.42901301 -0.01272924 C312.6979181 -0.01100264 320.9668141 -0.01391667 329.23571777 -0.01862335 C339.31319059 -0.02423341 349.39063225 -0.02271308 359.4681015 -0.01206186 C364.60942296 -0.00680687 369.75069248 -0.00474553 374.89201355 -0.01136017 C379.59963763 -0.01732521 384.30716168 -0.01403527 389.01477671 -0.00340506 C390.71653981 -0.00117341 392.41831138 -0.00230207 394.12006903 -0.00715664 C409.38851001 -0.04736703 421.2134713 1.33120796 432.76269531 12.12506104 C442.14917041 21.9063783 443.25678728 33.90114328 443.19334412 46.94143677 C443.19752533 48.29460437 443.20300715 49.64776845 443.20966393 51.00092614 C443.22403411 54.6907625 443.21990046 58.3803739 443.21249712 62.07022214 C443.20774671 66.0607924 443.22029179 70.05131528 443.23051453 74.04187012 C443.24767137 81.84866333 443.24854901 89.65537594 443.24330162 97.4621831 C443.23925284 103.81050183 443.24071188 110.15879681 443.24604988 116.50711441 C443.2467983 117.41218911 443.24754673 118.31726381 443.24831783 119.24976502 C443.24984937 121.08868964 443.25138772 122.92761426 443.25293279 124.76653887 C443.2666466 141.99427976 443.26122805 159.22197519 443.24974758 176.44971503 C443.23981663 192.19273704 443.25275548 207.93564148 443.27668177 223.67864536 C443.30109439 239.86423621 443.31067531 256.04977236 443.30402905 272.23538125 C443.3005416 281.31409952 443.3027375 290.39272742 443.32028008 299.47143173 C443.33502912 307.1999355 443.33560228 314.92828524 443.31820916 322.65678607 C443.30971893 326.59568777 443.30750083 330.53431465 443.32286072 334.47320175 C443.33677736 338.08688139 443.33185641 341.70005257 443.31262148 345.31370331 C443.30712634 347.22328073 443.32107462 349.1328845 443.33597559 351.04241168 C443.21920821 364.86340687 439.68363625 375.4993293 429.80957031 385.21881104 C419.89856679 393.82047097 407.83161898 394.84881032 395.20288086 394.70806885 C393.79211459 394.70693724 392.38134597 394.70758032 390.97058105 394.70983887 C387.18406881 394.71097476 383.39807552 394.68765078 379.61168265 394.65954304 C375.63859505 394.63433909 371.66549225 394.63217256 367.69233704 394.62744141 C360.18801321 394.61506691 352.68392574 394.58232118 345.17970544 394.54204345 C336.62820962 394.49715242 328.07670182 394.47529537 319.52511728 394.45526171 C301.95183008 394.41358279 284.37877215 394.34333975 266.80566406 394.25396729 C268.42192657 398.30716918 270.03941983 402.35987727 271.65795898 406.41217041 C272.20613281 407.78508866 272.75399471 409.1581315 273.30151367 410.53131104 C274.09760832 412.52775005 274.89480974 414.52374348 275.69238281 416.51959229 C275.95348846 417.17423462 276.21459412 417.82887695 276.48361206 418.50335693 C278.55109965 423.66801413 280.71659355 428.78737083 282.93383789 433.88970947 C283.80566406 436.25396729 283.80566406 436.25396729 283.80566406 439.25396729 C284.71743408 439.23302002 285.6292041 439.21207275 286.56860352 439.19049072 C290.00360546 439.12166436 293.43785795 439.07185633 296.87329102 439.03424072 C298.35029784 439.01432241 299.8272279 438.98717721 301.30395508 438.95220947 C312.47786349 438.69455407 322.53423357 439.09895198 331.24316406 446.94146729 C338.03583985 454.55707505 339.563147 461.40798482 339.24707031 471.59381104 C338.23026833 480.02516904 334.33801699 485.62062613 327.79003906 490.85162354 C320.46195867 496.03032602 313.89043164 496.40269811 305.23628235 496.39440918 C304.26718042 496.3973803 303.29807849 496.40035142 302.29960984 496.40341258 C299.04942191 496.41209026 295.79927086 496.41360705 292.54907227 496.4151001 C290.21976137 496.41972894 287.89045123 496.42475369 285.56114197 496.43014526 C279.23039028 496.44326517 272.8996492 496.44971347 266.56888604 496.45415592 C262.61303772 496.4570874 258.6571923 496.46119236 254.70134544 496.4656601 C243.74059462 496.47776775 232.77984632 496.48815011 221.81908894 496.49153519 C220.76743856 496.49186454 220.76743856 496.49186454 219.69454272 496.49220054 C218.99180019 496.49241882 218.28905766 496.49263709 217.56501991 496.49286199 C216.14108423 496.49330545 214.71714856 496.49375201 213.29321289 496.49420166 C212.58689719 496.49442309 211.88058148 496.49464452 211.15286227 496.49487266 C199.7141545 496.49881867 188.27551052 496.51626764 176.83682737 496.53956118 C165.08222927 496.56330406 153.32766313 496.57573838 141.57304066 496.5769031 C134.977579 496.57795077 128.38220732 496.58385065 121.78676796 496.60172272 C115.58073667 496.6182124 109.37486292 496.62035441 103.16881752 496.61158371 C100.89446592 496.61081381 98.62010582 496.61514975 96.3457756 496.62504196 C93.23365186 496.63778136 90.12208437 496.63187352 87.00996399 496.62145996 C86.11645731 496.62951637 85.22295063 496.63757277 84.30236799 496.64587331 C73.95779061 496.56528322 66.39952058 493.94961615 58.94238281 486.71490479 C53.84137249 480.83988376 51.69805672 474.00169588 51.80566406 466.25396729 C52.52542506 458.85071135 55.292137 451.77516581 60.59472656 446.46099854 C69.96664303 438.89999023 80.33679107 438.74942138 91.86816406 438.56646729 C93.32066761 438.53323107 94.77314292 438.49873578 96.22558594 438.46295166 C99.75207145 438.3787755 103.27863368 438.31163078 106.80566406 438.25396729 C108.40600847 434.39908626 110.00505097 430.54366823 111.60302734 426.68780518 C112.14370892 425.38363018 112.68471061 424.07958783 113.22607422 422.7756958 C114.01652719 420.87169037 114.80571856 418.96716564 115.59472656 417.06256104 C116.06604004 415.92617188 116.53735352 414.78978271 117.02294922 413.61895752 C119.66841447 407.1848443 122.22772391 400.71534418 124.80566406 394.25396729 C123.71816345 394.25949804 123.71816345 394.25949804 122.60869312 394.26514053 C104.92069026 394.35370058 87.23274413 394.41977817 69.54456806 394.46121597 C60.99048687 394.4817906 52.43655419 394.50981292 43.88256836 394.5557251 C36.42188686 394.59574985 28.96131298 394.62143711 21.50052708 394.63032126 C17.55460633 394.63550972 13.60899332 394.64759628 9.66317177 394.67688751 C5.93915819 394.70430476 2.21557526 394.71236007 -1.50852966 394.70639801 C-3.50637852 394.70800053 -5.5041819 394.72938422 -7.50190735 394.75164795 C-20.78625008 394.69182781 -31.51726879 391.72568079 -41.09277344 382.40631104 C-48.1299405 374.93859999 -51.3129506 366.74227998 -51.3257637 356.51292896 C-51.32960485 355.35962017 -51.33344599 354.20631137 -51.33740354 353.01805383 C-51.33653705 351.7554263 -51.33567057 350.49279876 -51.33477783 349.19190979 C-51.33736257 347.83353646 -51.34037603 346.4751639 -51.34378123 345.11679238 C-51.35184174 341.38487208 -51.35364028 337.65297102 -51.3543787 333.92104304 C-51.35623091 329.89567527 -51.3637791 325.87031745 -51.37051392 321.84495544 C-51.38409108 313.04320927 -51.39012101 304.24146766 -51.39452457 295.43971276 C-51.39728807 289.94277554 -51.40152563 284.44584007 -51.40602875 278.94890404 C-51.41822067 263.72642407 -51.4285201 248.50394551 -51.43190384 233.28146076 C-51.43212341 232.30734027 -51.43234297 231.33321979 -51.43256919 230.3295805 C-51.43278747 229.35314275 -51.43300575 228.37670501 -51.43323064 227.37067825 C-51.4336741 225.39207733 -51.43412067 223.41347641 -51.43457031 221.43487549 C-51.43479174 220.45342323 -51.43501317 219.47197096 -51.43524131 218.46077772 C-51.43918875 202.56017499 -51.45664148 186.65961809 -51.47992983 170.75903306 C-51.50365225 154.43014547 -51.5161061 138.10128087 -51.51727176 121.77237576 C-51.51818802 112.6059238 -51.52392814 103.43953158 -51.54209137 94.27309608 C-51.55750436 86.46717009 -51.56260575 78.66132229 -51.55435327 70.85538397 C-51.55045099 66.8744026 -51.55135562 62.89357865 -51.56541061 58.91261673 C-51.57817492 55.26378393 -51.57693004 51.61522641 -51.5648199 47.96639385 C-51.56194662 46.03045079 -51.57377951 44.09450285 -51.58624196 42.15859777 C-51.51737808 29.97026495 -48.85308198 20.22979647 -40.30761719 11.27740479 C-28.47286502 0.34944109 -15.33158783 -0.04373615 0 0 Z M-33.03808594 25.41021729 C-35.63707182 29.55454613 -36.44472728 33.13732887 -36.45160484 38.00059223 C-36.45805374 39.15513442 -36.46450263 40.30967661 -36.47114694 41.49920493 C-36.46804974 42.76319671 -36.46495253 44.02718848 -36.46176147 45.32948303 C-36.46549854 46.68928345 -36.47010028 48.04908173 -36.47549212 49.4088766 C-36.48773068 53.14467895 -36.48746065 56.8803918 -36.48510337 60.61620963 C-36.48469542 64.64563798 -36.49573228 68.67503755 -36.50521851 72.70445251 C-36.52183421 80.59860541 -36.52732831 88.49272844 -36.52844326 96.38689736 C-36.52939347 102.80357176 -36.53350242 109.2202363 -36.53984451 115.63690758 C-36.55745854 133.82823091 -36.56668314 152.01953064 -36.56518357 170.21086255 C-36.56510365 171.19164229 -36.56502374 172.17242203 -36.56494141 173.18292236 C-36.56485964 174.16489925 -36.56477788 175.14687613 -36.56469364 176.15860989 C-36.56388072 192.0735163 -36.58301968 207.98832807 -36.61121814 223.9032071 C-36.63994177 240.24339009 -36.65375872 256.58352692 -36.65203059 272.9237358 C-36.6513665 282.09796404 -36.65686691 291.27209308 -36.67838669 300.4462986 C-36.69659164 308.25742757 -36.70095149 316.06841236 -36.68736784 323.87955336 C-36.68083467 327.86437947 -36.68073338 331.84892894 -36.69807434 335.83372879 C-36.71379503 339.48376817 -36.71095216 343.13331131 -36.69350608 346.78333851 C-36.68898182 348.72474027 -36.70410146 350.66615737 -36.71998537 352.60749942 C-36.65595098 360.69998323 -35.71363116 366.23791269 -30.22949219 372.49615479 C-29.25302734 373.30439697 -29.25302734 373.30439697 -28.25683594 374.12896729 C-27.6084375 374.68326416 -26.96003906 375.23756104 -26.29199219 375.80865479 C-21.57810803 379.05658242 -17.5568049 379.50509055 -11.88597393 379.51123619 C-10.79191423 379.5164953 -10.79191423 379.5164953 -9.67575231 379.52186066 C-7.22457036 379.53118619 -4.77362539 379.5262484 -2.32243347 379.52139282 C-0.55015361 379.5251285 1.22212461 379.52972969 2.9944002 379.53512347 C7.87035412 379.54737905 12.74623956 379.54708999 17.62220538 379.54473472 C22.8786358 379.5443272 28.13504408 379.55535949 33.39146423 379.56484985 C43.69196285 379.58147479 53.99243857 379.58696007 64.29294948 379.58807461 C72.66423798 379.58902437 81.03551892 379.59313103 89.40680504 379.59947586 C113.13188004 379.61709226 136.85693694 379.62631409 160.58201853 379.62481491 C161.86149783 379.624735 163.14097712 379.62465509 164.45922852 379.62457275 C166.38078606 379.62445011 166.38078606 379.62445011 168.34116294 379.62432499 C189.10595469 379.62351195 209.87067391 379.64265311 230.63544468 379.67084949 C251.94768065 379.69956132 273.25988124 379.71339072 294.57213706 379.71166193 C306.54092354 379.71099745 318.50963401 379.71651533 330.47840309 379.73801804 C340.66837891 379.75620743 350.85824425 379.76059559 361.04822925 379.74699919 C366.24819166 379.74045827 371.44794199 379.74039293 376.64788437 379.75770569 C381.4081382 379.77339167 386.16801099 379.77061859 390.92825528 379.75313742 C392.65031113 379.75005766 394.3723951 379.75373657 396.09441779 379.76485758 C409.56280889 379.90160792 409.56280889 379.90160792 421.04785156 373.28912354 C421.58667969 372.63814697 422.12550781 371.98717041 422.68066406 371.31646729 C423.23496094 370.66806885 423.78925781 370.01967041 424.36035156 369.35162354 C427.23600567 365.17803906 428.05582274 361.53512647 428.06293297 356.50734234 C428.06938186 355.35280015 428.07583075 354.19825796 428.08247507 353.00872964 C428.07937786 351.74473786 428.07628066 350.48074609 428.0730896 349.17845154 C428.07682666 347.81865112 428.08142841 346.45885284 428.08682024 345.09905797 C428.0990588 341.36325562 428.09878878 337.62754277 428.09643149 333.89172494 C428.09602354 329.86229659 428.10706041 325.83289702 428.11654663 321.80348206 C428.13316233 313.90932916 428.13865644 306.01520613 428.13977139 298.12103721 C428.1407216 291.70436281 428.14483055 285.28769827 428.15117264 278.87102699 C428.16878666 260.67970366 428.17801127 242.48840393 428.17651169 224.29707202 C428.17643178 223.31629228 428.17635187 222.33551254 428.17626953 221.32501221 C428.17614689 219.85204688 428.17614689 219.85204688 428.17602177 218.34932468 C428.17520884 202.43441827 428.19434781 186.5196065 428.22254626 170.60472747 C428.25126989 154.26454448 428.26508684 137.92440765 428.26335871 121.58419877 C428.26269463 112.40997053 428.26819504 103.23584149 428.28971481 94.06163597 C428.30791976 86.250507 428.31227962 78.43952221 428.29869597 70.62838122 C428.29216279 66.6435551 428.2920615 62.65900564 428.30940247 58.67420578 C428.32512316 55.0241664 428.32228029 51.37462326 428.3048342 47.72459606 C428.30030994 45.7831943 428.31542958 43.84177721 428.33131349 41.90043515 C428.26864255 33.98026048 427.37243216 28.48586696 422.12988281 22.26568604 C421.58976562 21.82869385 421.04964844 21.39170166 420.49316406 20.94146729 C419.96078125 20.49158447 419.42839844 20.04170166 418.87988281 19.57818604 C413.33573383 16.03870109 408.85560479 14.87884356 402.28802776 14.87085724 C401.19647044 14.86341797 401.19647044 14.86341797 400.08286145 14.8558284 C397.64927465 14.84289554 395.21623861 14.85124943 392.78263855 14.85955811 C391.01830558 14.8546681 389.25397582 14.84847779 387.4896515 14.84110022 C382.64485134 14.82469141 377.80021382 14.82702056 372.95539558 14.83247519 C367.72894597 14.83514422 362.50253984 14.82061592 357.27610779 14.80838013 C347.03803559 14.78731842 336.80002001 14.78278571 326.56192871 14.78456801 C318.24028203 14.7858753 309.91865302 14.7820732 301.59700966 14.77464294 C299.20055415 14.77254376 296.80409865 14.77044616 294.40764314 14.76835012 C292.61849853 14.76678483 292.61849853 14.76678483 290.79320959 14.76518792 C268.23105835 14.74628246 245.66893961 14.74733665 223.10678373 14.75415725 C202.46631438 14.75973257 181.82596917 14.7389082 161.18552884 14.70579678 C139.99299568 14.67206351 118.80052199 14.65689102 97.60796148 14.66151381 C85.70954936 14.6637589 73.81125197 14.65850937 61.91286278 14.63362122 C51.78299001 14.61261281 41.65329486 14.60901159 31.52341481 14.62792081 C26.35555334 14.6370815 21.18802309 14.63821125 16.02018738 14.61756516 C11.28696984 14.59886465 6.554355 14.60334845 1.82116047 14.62611097 C0.1112426 14.63029904 -1.59872139 14.62608972 -3.30859051 14.61251503 C-15.28395505 14.52393647 -25.03618879 15.54741383 -33.03808594 25.41021729 Z M140.80566406 394.25396729 C131.60709957 416.67650242 131.60709957 416.67650242 122.80566406 439.25396729 C170.98566406 439.25396729 219.16566406 439.25396729 268.80566406 439.25396729 C265.50566406 431.00396729 262.20566406 422.75396729 258.80566406 414.25396729 C256.16566406 407.65396729 253.52566406 401.05396729 250.80566406 394.25396729 C214.50566406 394.25396729 178.20566406 394.25396729 140.80566406 394.25396729 Z M67.30566406 462.62896729 C66.46321542 467.05182267 66.55040425 471.12283588 68.85253906 475.03131104 C71.62077984 478.52578782 74.33769892 480.94424064 78.82161701 481.50696695 C79.5398332 481.5083758 80.25804939 481.50978465 80.99802971 481.51123619 C81.83134186 481.51768508 82.664654 481.52413398 83.52321804 481.53077829 C84.43351965 481.52768108 85.34382126 481.52458388 86.28170776 481.52139282 C87.25277753 481.52592394 88.2238473 481.53045505 89.22434342 481.53512347 C92.48701263 481.54781101 95.74951584 481.54614428 99.01220703 481.54449463 C101.34786189 481.55047714 103.68351477 481.55728204 106.01916504 481.56484985 C112.37037869 481.58254481 118.72153849 481.58720669 125.07277441 481.58848143 C130.37113521 481.59037861 135.6694834 481.59773403 140.96783936 481.60482562 C152.75182258 481.62047319 164.53578241 481.62616234 176.31977509 481.62481491 C177.38037558 481.62469504 177.38037558 481.62469504 178.46240234 481.62457275 C179.17033279 481.62449099 179.87826324 481.62440923 180.60764612 481.62432499 C192.0814793 481.62351203 203.55518122 481.64265205 215.02897643 481.67084949 C226.81065069 481.69957506 238.59226093 481.71338997 250.3739711 481.71166193 C256.98834551 481.71115144 263.60257139 481.71688326 270.21691513 481.73801804 C276.43691969 481.75734962 282.65663326 481.75755951 288.87664795 481.74298477 C291.16074167 481.74088931 293.44485335 481.74564123 295.72891617 481.75770569 C298.84483951 481.77309926 301.95975212 481.7638884 305.07565308 481.7484436 C306.43441333 481.76387429 306.43441333 481.76387429 307.82062328 481.77961671 C314.26840427 481.70889268 317.82863662 480.02568249 322.61816406 475.56646729 C324.49453529 471.9124812 325.0406501 468.34842091 324.80566406 464.25396729 C322.6338907 459.82689081 319.96200803 456.8760569 315.80566406 454.25396729 C312.58445581 453.66474897 309.40758979 453.70556779 306.14016724 453.73257446 C305.16078151 453.72492337 304.18139578 453.71727227 303.17233169 453.70938933 C299.88729373 453.68873516 296.6029553 453.69671195 293.31787109 453.70465088 C290.96398267 453.69595752 288.61009991 453.68559152 286.25622559 453.67367554 C279.85949783 453.64686259 273.46300617 453.64574185 267.06623316 453.65080214 C261.05306496 453.65466386 255.03991735 453.64079048 249.02676199 453.62993522 C236.38882962 453.60818423 223.75100398 453.61250899 211.11306559 453.62470491 C199.55582847 453.63504166 187.99892858 453.61253703 176.44175817 453.57450847 C164.57075387 453.53574718 152.69990909 453.51924051 140.82884109 453.52675498 C134.16579127 453.53057865 127.50298676 453.52507856 120.83996964 453.4973259 C114.57385019 453.47220379 108.30840625 453.47602376 102.04229736 453.50214767 C99.74249927 453.50688605 97.4426539 453.5013852 95.14291 453.48490143 C92.00286283 453.46401755 88.86509308 453.48012028 85.72512817 453.50552368 C84.81510107 453.49077511 83.90507397 453.47602654 82.96747029 453.46083105 C75.61702458 453.58593025 71.23386588 456.40931441 67.30566406 462.62896729 Z " fill="#000000" transform="translate(60.1943359375,7.74603271484375)"/>
<path d="M0 0 C0.71676493 -0.00581376 1.43352987 -0.01162753 2.17201495 -0.01761746 C4.58054234 -0.03224806 6.9880555 -0.01831873 9.39657593 -0.00457001 C11.13799881 -0.00917773 12.8794178 -0.01552978 14.62082863 -0.02347898 C19.41144843 -0.04021315 24.20175045 -0.0319074 28.99237156 -0.01953411 C34.15673057 -0.01050264 39.32103403 -0.02444388 44.48538208 -0.0354538 C54.60443237 -0.05326397 64.72336416 -0.04938791 74.84241915 -0.03780323 C83.06452185 -0.02877901 91.28659128 -0.02754053 99.50869751 -0.0318985 C101.26231958 -0.0328179 101.26231958 -0.0328179 103.05136836 -0.03375587 C105.42614604 -0.03503474 107.80092371 -0.03633159 110.17570138 -0.03764623 C132.45729542 -0.04905935 154.7388237 -0.03592684 177.02040696 -0.01444477 C196.14957305 0.00342686 215.27864206 0.00032296 234.4078064 -0.01811981 C256.60828692 -0.03951359 278.80870976 -0.04796065 301.00919914 -0.03567076 C303.37536493 -0.03439653 305.74153073 -0.03313904 308.10769653 -0.0318985 C309.85411058 -0.03097285 309.85411058 -0.03097285 311.63580573 -0.03002849 C319.85044907 -0.02657112 328.06505591 -0.03241228 336.2796936 -0.04181671 C346.28714506 -0.0530215 356.29447099 -0.05002868 366.30190802 -0.02869374 C371.41035467 -0.01816285 376.51859182 -0.01409617 381.62703705 -0.02729034 C386.3001809 -0.0391779 390.97292035 -0.03271197 395.64602733 -0.01138014 C397.33976043 -0.0068986 399.03352745 -0.00921496 400.72723889 -0.01888329 C403.02411431 -0.03099258 405.31959239 -0.01862962 407.61639404 0 C409.53238435 0.00097411 409.53238435 0.00097411 411.48708153 0.00196791 C415.44342744 0.5992668 417.10899871 1.5723006 419.80819702 4.50336456 C420.43264151 6.77168798 420.43264151 6.77168798 420.4318161 9.31039429 C420.44362144 10.28079226 420.45542678 11.25119023 420.46758986 12.25099421 C420.45507201 13.31440704 420.44255416 14.37781987 420.42965698 15.47345734 C420.4360458 16.60519678 420.44243463 17.73693622 420.44901705 18.90297079 C420.46432345 22.7095775 420.44376679 26.51515285 420.4234314 30.32172394 C420.4241673 33.04486878 420.43239048 35.76797939 420.44024658 38.49111176 C420.45478494 45.12818696 420.44252747 51.76495664 420.42113334 58.40200293 C420.39714098 66.12824058 420.39883662 73.85440796 420.40143925 81.58067459 C420.40513084 95.36470118 420.38429175 109.14858367 420.35018921 122.93256378 C420.31709693 136.31313469 420.30293074 149.69355434 420.30917358 163.07416534 C420.31593533 177.6386556 420.3134835 192.20308245 420.29381418 206.76756334 C420.29225495 207.92247309 420.29225495 207.92247309 420.29066423 209.10071436 C420.2885733 210.64717293 420.28646233 212.19363147 420.28433105 213.74008998 C420.27743108 219.12787691 420.27676687 224.51564433 420.2782135 229.90343475 C420.27965219 236.46782599 420.26998102 243.03209376 420.24626714 249.59644401 C420.23439468 252.94685038 420.22888888 256.29693902 420.23310471 259.64738655 C420.23680077 263.276214 420.22213648 266.904506 420.2026062 270.53327179 C420.20793413 271.59668462 420.21326205 272.66009746 420.21875143 273.75573492 C420.20516647 275.21133188 420.20516647 275.21133188 420.19130707 276.69633484 C420.18973587 277.53410792 420.18816466 278.371881 420.18654585 279.23504114 C419.70966292 282.09410833 418.82930663 283.44009519 416.80819702 285.50336456 C413.33459391 286.97642426 409.52173436 286.62992851 405.80191135 286.63199902 C405.09305376 286.63375205 404.38419616 286.63550509 403.65385804 286.63731125 C401.26652871 286.64198193 398.87926001 286.63950301 396.4919281 286.63707733 C394.76787228 286.63894476 393.04381689 286.64124519 391.31976217 286.64394265 C386.57258996 286.65007538 381.82543533 286.64992533 377.07826006 286.64874828 C371.96230141 286.64854465 366.84634847 286.65405941 361.73039246 286.65880585 C351.70415385 286.6671208 341.67792111 286.66986106 331.65167934 286.67041823 C323.50488598 286.67089294 315.35809456 286.67294547 307.2113018 286.67611885 C284.12917486 286.68492737 261.04705257 286.68953786 237.96492393 286.68878838 C236.719935 286.68874842 235.47494608 286.68870846 234.19223022 286.6886673 C232.94572681 286.68862642 231.69922339 286.68858554 230.41494714 286.68854342 C210.20420957 286.68813679 189.99349061 286.69771007 169.78275842 286.71180566 C149.04574875 286.72615456 128.30874818 286.73307668 107.57173342 286.73221189 C95.92330829 286.73187942 84.27490268 286.73464808 72.62648201 286.74538994 C62.7105388 286.75447536 52.79462395 286.75668633 42.87867839 286.74988052 C37.81687026 286.74660551 32.75511662 286.74659385 27.6933136 286.75523376 C23.06280313 286.76305644 18.43239075 286.76171097 13.8018828 286.75294963 C12.12359298 286.75140527 10.445296 286.75326574 8.76701463 286.75880971 C6.49133107 286.76583132 4.21599528 286.76060667 1.94032383 286.75225353 C0.67460594 286.7524709 -0.59111195 286.75268827 -1.89518493 286.75291222 C-5.14914229 286.5065939 -7.32795135 286.0434757 -10.19180298 284.50336456 C-12.32599662 281.3020741 -12.44331097 280.49443969 -12.4518652 276.81938267 C-12.45893079 275.85097574 -12.46599638 274.88256882 -12.47327608 273.88481623 C-12.47086099 272.81849055 -12.46844591 271.75216488 -12.46595764 270.65352631 C-12.47119432 269.52264129 -12.476431 268.39175628 -12.48182636 267.22660202 C-12.4968914 263.41720962 -12.49753294 259.60795078 -12.49819946 255.79853058 C-12.50473295 253.07554224 -12.51419382 250.35256562 -12.52342224 247.62958527 C-12.54628614 240.21857428 -12.55419408 232.80759189 -12.55924869 225.39655042 C-12.56250357 220.77105294 -12.56902471 216.1455638 -12.57625008 211.52007103 C-12.59581646 198.71847457 -12.61222089 185.91688586 -12.61512661 173.11527348 C-12.61531418 172.29585677 -12.61550175 171.47644006 -12.615695 170.63219255 C-12.61606126 168.97097711 -12.61642496 167.30976167 -12.61678611 165.64854623 C-12.61696893 164.82389555 -12.61715174 163.99924488 -12.61734009 163.1496048 C-12.61752064 162.32395025 -12.61770119 161.49829571 -12.61788721 160.64762133 C-12.62143076 147.26149914 -12.64846425 133.87553764 -12.68583798 120.4894712 C-12.72388409 106.75291753 -12.74328381 93.01644367 -12.74358612 79.27983612 C-12.74417147 71.5644303 -12.75271306 63.84921622 -12.78158379 56.13385963 C-12.8060482 49.56576303 -12.81341415 42.99792812 -12.79833626 36.42979831 C-12.79114701 33.07715678 -12.7948086 29.72545495 -12.81474686 26.37280083 C-12.8350315 22.74147131 -12.8247578 19.1114965 -12.80653381 15.48018646 C-12.81973378 14.41609151 -12.83293375 13.35199656 -12.84653372 12.2556563 C-12.83534508 11.28464163 -12.82415644 10.31362696 -12.81262875 9.3131876 C-12.8134432 8.47487245 -12.81425766 7.63655729 -12.8150968 6.77283865 C-11.0912198 0.49603296 -5.67443375 0.00288495 0 0 Z M1.80819702 15.50336456 C1.80819702 99.98336456 1.80819702 184.46336456 1.80819702 271.50336456 C135.12819702 271.50336456 268.44819702 271.50336456 405.80819702 271.50336456 C405.80819702 187.02336456 405.80819702 102.54336456 405.80819702 15.50336456 C272.48819702 15.50336456 139.16819702 15.50336456 1.80819702 15.50336456 Z " fill="#000000" transform="translate(52.191802978515625,38.49663543701172)"/>
<path d="M0 0 C23.06418992 -0.62335648 43.83922667 7.13418853 60.81640625 22.9140625 C77.11633927 39.894392 84.50798343 61.20812595 84.18359375 84.41015625 C83.49279165 105.66197488 73.71003531 125.02693623 58.59228516 139.67382812 C41.75924711 155.04378407 20.67144026 161.23603886 -1.671875 160.546875 C-9.12526683 160.12778749 -15.96623364 158.4896499 -23.03125 156.15625 C-24.40796875 155.723125 -24.40796875 155.723125 -25.8125 155.28125 C-45.21714882 148.40365295 -60.22802224 132.05430849 -69.26953125 114.05078125 C-77.84922517 95.9037045 -78.9005375 73.08877606 -72.33105469 54.13623047 C-68.85689864 44.83903929 -64.34547963 36.85961014 -58.03125 29.15625 C-57.21914062 28.10050781 -57.21914062 28.10050781 -56.390625 27.0234375 C-44.44531328 12.23676523 -25.55716098 3.32309556 -7.03125 0.40625 C-4.69005838 0.20784393 -2.34672328 0.12096512 0 0 Z M10.96875 15.15625 C10.96875 34.29625 10.96875 53.43625 10.96875 73.15625 C30.10875 73.15625 49.24875 73.15625 68.96875 73.15625 C66.27381887 56.98666321 61.38605503 44.33182453 48.96875 33.15625 C48.40929687 32.61613281 47.84984375 32.07601562 47.2734375 31.51953125 C37.05912926 21.98755534 24.67014903 17.11359272 10.96875 15.15625 Z M-42.7890625 33.8515625 C-56.82186484 48.89120268 -61.60259603 65.79459532 -61.30078125 85.78125 C-60.84921984 98.50504926 -55.65426154 108.57872186 -49.03125 119.15625 C-39.55375157 119.15625 -30.48546754 108.12574166 -23.78125 102.03125 C-23.28796455 101.58547859 -22.79467911 101.13970718 -22.28644562 100.68042755 C-9.55276486 89.04600289 -1.25950066 78.21712837 -0.2578125 60.5625 C0.41354143 45.44010138 -0.98876073 30.12413895 -3.03125 15.15625 C-17.30284869 15.15625 -32.84016173 24.25640042 -42.7890625 33.8515625 Z M-18.40625 108.65625 C-18.86736301 109.17043613 -19.32847603 109.68462227 -19.80356216 110.2143898 C-25.51015625 116.62975623 -30.90396263 123.26870685 -36.03125 130.15625 C-34.0823235 134.77051394 -30.88865203 136.15067064 -26.53125 138.21875 C-25.80292969 138.56945557 -25.07460937 138.92016113 -24.32421875 139.28149414 C-9.04372264 146.49935726 6.94045917 148.28679274 23.24609375 143.1171875 C42.26444455 136.23773739 55.22636509 124.33308406 64.34375 106.4609375 C66.29316291 102.00308885 67.30578202 97.65238557 68.06640625 92.8515625 C68.32369507 91.24692139 68.32369507 91.24692139 68.58618164 89.60986328 C68.7124292 88.8001709 68.83867676 87.99047852 68.96875 87.15625 C59.55790837 85.83720327 50.1427728 84.96434928 40.65625 84.46875 C39.95666924 84.43194122 39.25708847 84.39513245 38.53630829 84.35720825 C13.08480662 83.17475192 -1.47711006 89.76385231 -18.40625 108.65625 Z " fill="#000000" transform="translate(147.03125,69.84375)"/>
<path d="M0 0 C0.80448578 -0.01606293 1.60897156 -0.03212585 2.43783569 -0.04867554 C6.10649603 -0.09327633 9.7749796 -0.13417152 13.44384766 -0.15722656 C15.37788923 -0.17379849 17.31186925 -0.20110484 19.24560547 -0.23925781 C22.03857077 -0.29404986 24.83010469 -0.31590133 27.62353516 -0.33056641 C28.48514252 -0.35323578 29.34674988 -0.37590515 30.23446655 -0.39926147 C31.04525665 -0.39641144 31.85604675 -0.3935614 32.69140625 -0.390625 C33.39961517 -0.39871185 34.1078241 -0.40679871 34.8374939 -0.41513062 C38.49568538 0.62537405 39.77132148 2.08650542 41.97509766 5.19287109 C42.71297575 9.12225841 42.6373113 13.00009633 42.59033203 16.98803711 C42.59588104 18.18203125 42.60143005 19.37602539 42.60714722 20.60620117 C42.61692308 23.87297777 42.60436124 27.1387143 42.58086205 30.40539289 C42.56072558 33.82681255 42.56663397 37.24819811 42.56896973 40.66966248 C42.56891619 46.41378676 42.54918013 52.15758169 42.51708984 57.90161133 C42.48018084 64.54040114 42.47141701 71.17875991 42.47838736 77.81763893 C42.48469414 84.2083744 42.47393604 90.59896223 42.454422 96.98966789 C42.44625217 99.7076929 42.44353766 102.42564241 42.44511414 105.14367867 C42.44332061 108.93839338 42.42197598 112.73249126 42.39501953 116.52709961 C42.39795013 117.65500412 42.40088074 118.78290863 42.40390015 119.94499207 C42.39255035 120.97820587 42.38120056 122.01141968 42.36950684 123.07594299 C42.36577812 123.97280602 42.36204941 124.86966906 42.3582077 125.79370975 C41.89666963 128.68401324 40.96135851 130.07161084 38.97509766 132.19287109 C36.93287659 132.70080566 36.93287659 132.70080566 34.56713867 132.71044922 C33.67934219 132.72305786 32.79154572 132.7356665 31.87684631 132.74865723 C30.92055832 132.7405603 29.96427032 132.73246338 28.97900391 132.72412109 C27.99391342 132.727948 27.00882294 132.7317749 25.99388123 132.73571777 C23.91005431 132.73844034 21.82619342 132.73105511 19.74243164 132.71435547 C16.55293451 132.69297391 13.36569588 132.71413415 10.17626953 132.73974609 C8.15217602 132.73710243 6.1280839 132.73197666 4.10400391 132.72412109 C3.14974014 132.73221802 2.19547638 132.74031494 1.21229553 132.74865723 C0.32134689 132.73604858 -0.56960175 132.72343994 -1.48754883 132.71044922 C-2.26903793 132.70726685 -3.05052704 132.70408447 -3.85569763 132.70080566 C-6.90724381 131.98626462 -8.04289881 130.58547593 -10.02490234 128.19287109 C-10.52547359 125.79091644 -10.52547359 125.79091644 -10.52610779 123.06921387 C-10.53594193 122.0345549 -10.54577606 120.99989594 -10.5559082 119.93388367 C-10.54624023 118.80440811 -10.53657227 117.67493256 -10.52661133 116.51123047 C-10.53201431 115.31738235 -10.5374173 114.12353424 -10.54298401 112.89350891 C-10.55334746 109.62268702 -10.54576953 106.35252216 -10.52927279 103.08174324 C-10.5154153 99.65764077 -10.52188316 96.23356863 -10.52540588 92.80944824 C-10.52810747 87.05940277 -10.51463705 81.3095661 -10.49145508 75.55957031 C-10.46484548 68.91342613 -10.46309833 62.26763105 -10.47484344 55.62145185 C-10.48562581 49.22592678 -10.47943061 42.83052788 -10.46528816 36.43501282 C-10.45953229 33.71418777 -10.45960787 30.99345518 -10.46435356 28.27262878 C-10.46725725 24.47304082 -10.45079791 20.6740272 -10.42895508 16.87451172 C-10.43345673 15.74503616 -10.43795837 14.61556061 -10.44259644 13.45185852 C-10.4326918 12.41719955 -10.42278717 11.38254059 -10.4125824 10.31652832 C-10.4101525 9.41836647 -10.40772261 8.52020462 -10.40521908 7.59482574 C-9.9432283 4.67704489 -9.05313578 3.31744086 -7.02490234 1.19287109 C-4.35741803 0.30370966 -2.74128246 0.04989122 0 0 Z M4.97509766 15.19287109 C4.97509766 49.18287109 4.97509766 83.17287109 4.97509766 118.19287109 C12.23509766 118.19287109 19.49509766 118.19287109 26.97509766 118.19287109 C26.97509766 84.20287109 26.97509766 50.21287109 26.97509766 15.19287109 C19.71509766 15.19287109 12.45509766 15.19287109 4.97509766 15.19287109 Z " fill="#000000" transform="translate(323.02490234375,160.80712890625)"/>
<path d="M0 0 C2.39470402 1.8474985 4.32162918 3.55847325 6.39428711 5.71313477 C7.28827209 6.60580551 7.28827209 6.60580551 8.20031738 7.51651001 C10.15722835 9.47758492 12.09205342 11.45901156 14.02734375 13.44140625 C15.38365901 14.80891774 16.74130936 16.17510626 18.10023499 17.5400238 C21.6662444 21.12889718 25.21386559 24.73542325 28.75793457 28.34594727 C32.3804065 32.02989268 36.02001052 35.69682534 39.65820312 39.36523438 C46.78898982 46.56029095 53.90046298 53.77411614 61 61 C65.21676405 59.07139535 68.08321791 56.17029862 71.296875 52.8984375 C71.89050842 52.30197418 72.48414185 51.70551086 73.09576416 51.0909729 C74.98526627 49.1903019 76.86768392 47.28278526 78.75 45.375 C80.03209065 44.08287532 81.31463761 42.79120324 82.59765625 41.5 C85.73708432 38.33855521 88.87017801 35.1709539 92 32 C91.30132812 31.89042969 90.60265625 31.78085938 89.8828125 31.66796875 C88.97273437 31.50941406 88.06265625 31.35085937 87.125 31.1875 C85.76761719 30.96126953 85.76761719 30.96126953 84.3828125 30.73046875 C82 30 82 30 80 27 C79.65983231 23.80242373 79.63044761 21.73577547 81.08398438 18.84179688 C83.91641256 16.11908558 86.09586452 16.48257468 89.96875 16.46875 C90.98382629 16.46300964 90.98382629 16.46300964 92.01940918 16.45715332 C93.44833872 16.45443469 94.87731807 16.46179283 96.30615234 16.47851562 C98.49299086 16.49993136 100.67654486 16.47871813 102.86328125 16.453125 C104.25261141 16.45576829 105.64193954 16.46089331 107.03125 16.46875 C108.92713867 16.47551758 108.92713867 16.47551758 110.86132812 16.48242188 C114 17 114 17 115.90625 18.62109375 C118.05293929 23.29014296 117.5181858 28.41879916 117.50097656 33.47216797 C117.5000026 35.49460577 117.54167327 37.51326456 117.5859375 39.53515625 C117.58851563 40.81261719 117.59109375 42.09007812 117.59375 43.40625 C117.60083984 44.57478516 117.60792969 45.74332031 117.61523438 46.94726562 C117 50 117 50 114.65820312 52.41601562 C112 54 112 54 108.875 53.9375 C104.68446139 52.57102002 104.68446139 52.57102002 103 50 C102.63223159 48.00604476 102.29586135 46.00588563 102 44 C101.56595856 44.43626205 101.13191711 44.87252411 100.6847229 45.32200623 C96.1782378 49.8505664 91.66827485 54.3756411 87.15625 58.89868164 C85.47142996 60.58853924 83.78750734 62.27929207 82.10449219 63.97094727 C79.68918878 66.39834141 77.2707063 68.8225277 74.8515625 71.24609375 C74.0963028 72.00651474 73.34104309 72.76693573 72.56289673 73.55039978 C71.86232147 74.25105057 71.16174622 74.95170135 70.43994141 75.67358398 C69.82261139 76.29313461 69.20528137 76.91268524 68.56924438 77.55101013 C66.23670193 79.70480492 64.99791121 80.00027132 61.78038025 80.41821289 C56.89256147 79.87748717 54.76926326 77.71166949 51.51391602 74.30859375 C50.90817245 73.70387238 50.30242889 73.099151 49.67832947 72.47610474 C47.68647226 70.47938279 45.72053555 68.45904841 43.75390625 66.4375 C42.37538957 65.0459234 40.99531599 63.65588751 39.61375427 62.26733398 C35.98630126 58.61318761 32.38036114 54.93850984 28.77850342 51.25915527 C25.09752208 47.50649481 21.39657907 43.77363703 17.69726562 40.0390625 C10.44516952 32.71195196 3.21564639 25.36299605 -4 18 C-8.59066736 21.83030492 -12.9260201 25.80229056 -17.09960938 30.08129883 C-18.26940632 31.2707395 -19.43920626 32.46017724 -20.60900879 33.64961243 C-21.21743118 34.27026392 -21.82585358 34.89091541 -22.45271301 35.53037453 C-25.70769347 38.84666607 -28.97839771 42.1474177 -32.24609375 45.45117188 C-36.3886044 49.64163888 -40.52637818 53.8365142 -44.64892578 58.04663086 C-47.99615317 61.46413711 -51.35786836 64.8667799 -54.72969055 68.26001549 C-56.00772639 69.55162158 -57.28033664 70.8486203 -58.54728699 72.15110207 C-60.3179704 73.97010672 -62.10656338 75.76952946 -63.90039062 77.56567383 C-64.41591995 78.10434586 -64.93144928 78.64301788 -65.46260071 79.19801331 C-69.11261911 82.79796445 -71.88709612 83.90292702 -77 84 C-79.9375 82.4375 -79.9375 82.4375 -82 80 C-82.75 77.25 -82.75 77.25 -82 74 C-80.63532734 72.17698574 -80.63532734 72.17698574 -78.87947083 70.23130798 C-78.24375971 69.52679441 -77.60804859 68.82228085 -76.9530735 68.09641838 C-74.0866876 65.01965548 -71.15686962 62.01723635 -68.1784668 59.04907227 C-67.53692154 58.40577469 -66.89537628 57.76247711 -66.23439026 57.09968567 C-64.14181809 55.00275991 -62.0456668 52.90945645 -59.94921875 50.81640625 C-58.48413233 49.35064542 -57.01919432 47.88473624 -55.55439758 46.41868591 C-52.49906792 43.36188852 -49.44195308 40.30689101 -46.38354492 37.25317383 C-42.45808903 33.3334451 -38.53718047 29.40920304 -34.61757183 25.48362827 C-31.60060269 22.46305434 -28.58126679 19.44485531 -25.56119728 16.42738152 C-24.11352901 14.98038117 -22.66660554 13.53263528 -21.22043419 12.08413887 C-19.20754725 10.06872352 -17.19150227 8.05652238 -15.17456055 6.04516602 C-14.57559967 5.44418091 -13.97663879 4.8431958 -13.35952759 4.22399902 C-8.53013911 -0.58053756 -6.8126512 -1.65968439 0 0 Z " fill="#000000" transform="translate(327,92)"/>
<path d="M0 0 C0.8677002 -0.01583633 1.73540039 -0.03167267 2.62939453 -0.04798889 C4.02327393 -0.04054909 4.02327393 -0.04054909 5.4453125 -0.03295898 C6.40679199 -0.03915756 7.36827148 -0.04535614 8.35888672 -0.05174255 C10.38963814 -0.05883955 12.42044776 -0.05566881 14.45117188 -0.04296875 C17.55968128 -0.02910017 20.66518225 -0.06317875 23.7734375 -0.10131836 C25.74739657 -0.10226953 27.72135941 -0.10041082 29.6953125 -0.09545898 C30.62456543 -0.10871719 31.55381836 -0.1219754 32.51123047 -0.13563538 C33.81278076 -0.11683571 33.81278076 -0.11683571 35.140625 -0.09765625 C36.28168701 -0.09621361 36.28168701 -0.09621361 37.44580078 -0.09474182 C40.78121489 0.89149456 41.80706548 2.59485566 43.5703125 5.53344727 C44.06478882 8.95509338 44.06478882 8.95509338 44.05615234 12.92236328 C44.05994904 13.64818604 44.06374573 14.37400879 44.06765747 15.12182617 C44.07504126 17.51078092 44.05371459 19.89850768 44.03125 22.28735352 C44.02886438 23.9521419 44.0279605 25.61693301 44.0284729 27.28172302 C44.02534875 30.76611247 44.00881214 34.25008933 43.98193359 37.734375 C43.94792783 42.19890452 43.94030601 46.66298159 43.94182396 51.12762547 C43.94127997 54.56345431 43.93030859 57.99918441 43.91582108 61.43498039 C43.90946108 63.08119904 43.90551605 64.72742887 43.90403366 66.37365913 C43.8996936 68.67394169 43.88217868 70.97374613 43.86083984 73.27392578 C43.84940445 75.23653099 43.84940445 75.23653099 43.83773804 77.23878479 C43.58896637 80.30363305 43.29519942 82.0263475 41.5703125 84.53344727 C39.24589053 85.69565825 37.8493407 85.67801643 35.26000977 85.71044922 C34.36891006 85.72328445 33.47781036 85.73611969 32.55970764 85.74934387 C31.59512131 85.7567308 30.63053497 85.76411774 29.63671875 85.77172852 C28.64784164 85.77980026 27.65896454 85.78787201 26.64012146 85.79618835 C24.54615027 85.81003138 22.45215649 85.82075255 20.3581543 85.82861328 C17.14914569 85.84585949 13.94115833 85.88974763 10.73242188 85.93383789 C8.70052843 85.94396166 6.66862621 85.95247875 4.63671875 85.95922852 C3.67415665 85.9767366 2.71159454 85.99424469 1.71986389 86.01228333 C0.3784861 86.00789497 0.3784861 86.00789497 -0.98999023 86.00341797 C-1.77671616 86.00928421 -2.56344208 86.01515045 -3.37400818 86.02119446 C-5.4296875 85.53344727 -5.4296875 85.53344727 -7.18191528 83.97026062 C-8.86621983 80.68092964 -8.85698658 77.68583742 -8.83374023 74.07446289 C-8.84060349 73.32927902 -8.84746674 72.58409515 -8.85453796 71.81632996 C-8.87281433 69.35725767 -8.86896787 66.89882278 -8.86328125 64.43969727 C-8.8678423 62.72863558 -8.87314765 61.01757573 -8.87916565 59.30651855 C-8.8880981 55.72209221 -8.88567174 52.13788866 -8.87573242 48.5534668 C-8.86423583 43.9598163 -8.88446367 39.36693371 -8.91364956 34.77338409 C-8.93199306 31.24061194 -8.93172295 27.7080245 -8.92601204 24.17521667 C-8.92585863 22.48153098 -8.93191899 20.78783292 -8.94430351 19.0941925 C-8.95917934 16.7264481 -8.94856358 14.3601313 -8.93139648 11.99243164 C-8.94106445 11.29309006 -8.95073242 10.59374847 -8.96069336 9.87321472 C-8.91088653 6.59328337 -8.61338775 4.78817173 -6.67518616 2.1006012 C-4.17994737 0.35915136 -3.00674096 0.02450023 0 0 Z M5.5703125 14.53344727 C5.5703125 33.34344727 5.5703125 52.15344727 5.5703125 71.53344727 C13.1603125 71.53344727 20.7503125 71.53344727 28.5703125 71.53344727 C28.5703125 52.72344727 28.5703125 33.91344727 28.5703125 14.53344727 C20.9803125 14.53344727 13.3903125 14.53344727 5.5703125 14.53344727 Z " fill="#000000" transform="translate(253.4296875,207.466552734375)"/>
<path d="M0 0 C1.20672867 -0.01925285 1.20672867 -0.01925285 2.43783569 -0.03889465 C3.73631943 -0.04997505 3.73631943 -0.04997505 5.06103516 -0.0612793 C6.4019371 -0.07338692 6.4019371 -0.07338692 7.76992798 -0.08573914 C9.66121488 -0.09956575 11.55252659 -0.11029427 13.44384766 -0.11816406 C16.3323495 -0.13539219 19.21971103 -0.17929215 22.10791016 -0.22338867 C23.94644342 -0.23351472 25.78498639 -0.2420311 27.62353516 -0.2487793 C28.48514252 -0.26628738 29.34674988 -0.28379547 30.23446655 -0.30183411 C33.93353076 -0.2884868 36.57707155 0.01284249 40.02246094 1.43383789 C43.29807469 6.03558785 42.64570444 10.99467841 42.56884766 16.4934082 C42.56888794 17.70141586 42.56892822 18.90942352 42.56896973 20.15403748 C42.56360934 22.70691126 42.54600488 25.25978434 42.51708984 27.8125 C42.47521925 31.72813108 42.47602174 35.64204408 42.48291016 39.55786133 C42.47241874 42.03638895 42.4594809 44.51490768 42.44384766 46.9934082 C42.44364624 48.16843399 42.44344482 49.34345978 42.4432373 50.55409241 C42.42732544 51.64209641 42.41141357 52.7301004 42.39501953 53.85107422 C42.38660034 54.80941666 42.37818115 55.76775909 42.36950684 56.75514221 C41.90449116 59.61055941 41.27530457 60.4744322 38.97509766 62.17700195 C35.08474113 63.47378746 31.38193238 63.33948006 27.32666016 63.3449707 C26.47711761 63.3482991 25.62757507 63.3516275 24.75228882 63.35505676 C22.95514466 63.36011853 21.15799112 63.36246532 19.36083984 63.36230469 C16.61751728 63.36448809 13.87459891 63.38264309 11.13134766 63.40161133 C9.3839532 63.40454605 7.63655683 63.40653032 5.88916016 63.4074707 C4.66237045 63.41824898 4.66237045 63.41824898 3.41079712 63.429245 C-0.7731239 63.41254386 -4.33220212 63.38346663 -8.02490234 61.17700195 C-9.96008422 58.11224485 -10.2808135 55.70956787 -10.29956055 52.12060547 C-10.30909256 51.1159877 -10.31862457 50.11136993 -10.32844543 49.0763092 C-10.32753403 47.99707687 -10.32662262 46.91784454 -10.32568359 45.8059082 C-10.32996872 44.69142807 -10.33425385 43.57694794 -10.33866882 42.42869568 C-10.34440987 40.07258788 -10.34491405 37.71646236 -10.34057617 35.36035156 C-10.33741734 31.75660955 -10.36087526 28.15368929 -10.38623047 24.55004883 C-10.38850359 22.26033632 -10.3892069 19.97062161 -10.38818359 17.6809082 C-10.39739334 16.6037001 -10.40660309 15.526492 -10.41609192 14.41664124 C-10.35706698 4.86686487 -10.35706698 4.86686487 -7.02490234 1.17700195 C-4.34898443 0.28502931 -2.74876947 0.03829434 0 0 Z M4.97509766 15.17700195 C4.97509766 26.06700195 4.97509766 36.95700195 4.97509766 48.17700195 C12.56509766 48.17700195 20.15509766 48.17700195 27.97509766 48.17700195 C27.97509766 37.28700195 27.97509766 26.39700195 27.97509766 15.17700195 C20.38509766 15.17700195 12.79509766 15.17700195 4.97509766 15.17700195 Z " fill="#000000" transform="translate(391.02490234375,230.822998046875)"/>
<path d="M0 0 C1.2411557 -0.00700928 2.4823114 -0.01401855 3.76107788 -0.02124023 C7.15804713 -0.03581579 10.55404017 -0.03241883 13.95095444 -0.01972389 C17.50938966 -0.00958116 21.0677838 -0.01899309 24.6262207 -0.02526855 C30.60147573 -0.03254129 36.57653285 -0.02296723 42.55175781 -0.00390625 C49.45528047 0.017862 56.35833057 0.01081034 63.26184177 -0.01121187 C69.19407216 -0.02937668 75.12616047 -0.03191898 81.05840969 -0.0214572 C84.59929078 -0.01522812 88.13994991 -0.01437023 91.68081665 -0.02760315 C95.62854311 -0.04132662 99.57574226 -0.02229413 103.5234375 0 C105.28003189 -0.01214539 105.28003189 -0.01214539 107.07211304 -0.02453613 C114.95998881 0.05809883 114.95998881 0.05809883 118.98754883 2.36633301 C120.76171875 4.51757813 120.76171875 4.51757813 121.38671875 7.45507812 C120.50962743 11.75282557 119.32709303 12.92239081 115.76171875 15.51757812 C111.68820293 16.27138117 107.65600828 16.18994231 103.5234375 16.14868164 C102.2822818 16.15583694 101.0411261 16.16299225 99.76235962 16.17036438 C96.36518424 16.18436405 92.96953384 16.17595609 89.57248306 16.15627408 C86.01405194 16.13986727 82.45566984 16.14870328 78.8972168 16.15379333 C72.92191025 16.15831206 66.94691696 16.14245852 60.97167969 16.11450195 C54.06814343 16.08245071 47.16517209 16.08246629 40.26159573 16.09971672 C33.61456166 16.11559281 26.96773428 16.1088414 20.32070923 16.09177971 C17.49462365 16.08491566 14.66870406 16.08593491 11.84262085 16.09332466 C7.89486231 16.10242388 3.94768194 16.0784285 0 16.05102539 C-1.75659439 16.06081421 -1.75659439 16.06081421 -3.54867554 16.07080078 C-11.420187 15.97777162 -11.420187 15.97777162 -15.46411133 13.70298767 C-17.23828125 11.51757812 -17.23828125 11.51757812 -17.86328125 8.01757812 C-17.23828125 4.51757812 -17.23828125 4.51757812 -15.46411133 2.33117676 C-10.46317673 -0.48040598 -5.64427251 -0.03902544 0 0 Z " fill="#000000" transform="translate(88.23828125,245.482421875)"/>
<path d="M0 0 C0.76469101 -0.00700928 1.52938202 -0.01401855 2.31724548 -0.02124023 C4.84142521 -0.03882538 7.36448103 -0.02719636 9.88867188 -0.01367188 C11.64457413 -0.01636666 13.40047493 -0.02024896 15.15637207 -0.02526855 C18.83502419 -0.03116428 22.51328761 -0.02259843 26.19189453 -0.00390625 C30.90663848 0.01888356 35.62047166 0.00576085 40.33518219 -0.01819611 C43.96062072 -0.0326522 47.58584341 -0.02804901 51.21128845 -0.01768494 C52.94962166 -0.01501712 54.68797448 -0.01828937 56.42628479 -0.02760315 C58.85633221 -0.03776594 61.28490607 -0.02227319 63.71484375 0 C64.79190834 -0.01214539 64.79190834 -0.01214539 65.89073181 -0.02453613 C69.24797465 0.03245555 71.07639256 0.31002272 73.80773926 2.32727051 C76.04976581 5.49613088 75.83891502 7.73441768 75.35742188 11.51757812 C74.31311035 13.20716858 74.31311035 13.20716858 72.35742188 14.51757812 C69.70384133 14.8187625 67.28371164 14.93773926 64.62890625 14.92163086 C63.84324783 14.92849411 63.05758942 14.93535736 62.24812317 14.94242859 C59.64895602 14.96074274 57.05038975 14.95685303 54.45117188 14.95117188 C52.64660444 14.95573115 50.84203874 14.96103596 49.03747559 14.96705627 C45.25456693 14.97599619 41.4718693 14.9735539 37.68896484 14.96362305 C32.83625082 14.95212638 27.9842637 14.97235083 23.1316452 15.00154018 C19.40504312 15.01986675 15.67861641 15.01961694 11.95198059 15.01390266 C10.16257202 15.01374904 8.37315185 15.01982678 6.58378601 15.03219414 C4.08403607 15.04703764 1.5856443 15.03647763 -0.9140625 15.01928711 C-1.65597336 15.02895508 -2.39788422 15.03862305 -3.16227722 15.04858398 C-6.42034147 15.00155829 -8.17614591 14.95733845 -10.5982666 12.67372131 C-12.0345726 9.7082447 -12.1172361 7.7723757 -11.64257812 4.51757812 C-8.43778726 0.06065944 -5.14030387 -0.057964 0 0 Z " fill="#000000" transform="translate(82.642578125,278.482421875)"/>
<path d="M0 0 C4.10703441 0.85563217 5.55401113 2.24378009 8 5.625 C8.63127485 9.62307408 8.67917484 11.63235985 6.375 15 C3.43721938 17.01006043 1.5603504 17.55233979 -2 17.625 C-6.56521739 15.49456522 -6.56521739 15.49456522 -8 12.625 C-8.49512681 8.25137986 -8.49223866 6.30544756 -5.875 2.6875 C-3 0.625 -3 0.625 0 0 Z " fill="#000000" transform="translate(256,342.375)"/>
</svg>
