<?xml version="1.0" standalone="no"?>
<!DOCTYPE svg PUBLIC "-//W3C//DTD SVG 20010904//EN"
 "http://www.w3.org/TR/2001/REC-SVG-20010904/DTD/svg10.dtd">
<svg version="1.0" xmlns="http://www.w3.org/2000/svg"
 width="512.000000pt" height="512.000000pt" viewBox="0 0 512.000000 512.000000"
 preserveAspectRatio="xMidYMid meet">

<g transform="translate(0.000000,512.000000) scale(0.100000,-0.100000)"
fill="#000000" stroke="none">
<path d="M955 4900 c-172 -18 -388 -104 -526 -209 -78 -60 -184 -170 -234
-243 l-35 -53 1017 -1016 c995 -994 1020 -1018 1093 -1053 111 -52 194 -69
320 -64 118 5 213 33 305 89 36 21 385 364 1059 1038 l1006 1006 -35 53 c-50
73 -158 185 -235 244 -85 65 -264 152 -365 178 -44 11 -120 25 -170 30 -106
11 -3094 11 -3200 0z"/>
<path d="M5 3899 c-3 -19 -5 -653 -3 -1409 l3 -1375 27 -97 c120 -438 479
-748 921 -797 133 -15 3081 -15 3214 0 442 49 800 359 921 797 l27 97 3 1375
c2 756 0 1390 -3 1409 l-6 34 -937 -935 c-714 -712 -954 -946 -1009 -982 -102
-66 -228 -123 -341 -153 -86 -23 -116 -26 -262 -26 -147 0 -176 3 -265 26
-124 34 -278 108 -375 182 -41 31 -488 469 -992 973 l-916 915 -7 -34z"/>
</g>
</svg>
