<?xml version="1.0" standalone="no"?>
<!DOCTYPE svg PUBLIC "-//W3C//DTD SVG 20010904//EN"
 "http://www.w3.org/TR/2001/REC-SVG-20010904/DTD/svg10.dtd">
<svg version="1.0" xmlns="http://www.w3.org/2000/svg"
 width="512.000000pt" height="512.000000pt" viewBox="0 0 512.000000 512.000000"
 preserveAspectRatio="xMidYMid meet">

<g transform="translate(0.000000,512.000000) scale(0.100000,-0.100000)"
fill="#000000" stroke="none">
<path d="M2367 5049 c-340 -24 -703 -129 -1007 -291 -470 -250 -862 -655
-1095 -1132 -92 -188 -136 -307 -185 -500 -61 -241 -74 -355 -74 -626 0 -251
12 -365 59 -574 164 -722 649 -1352 1305 -1695 127 -66 309 -143 383 -161 41
-11 54 -10 92 5 80 30 82 40 77 391 l-2 200 -72 -12 c-40 -7 -130 -13 -199
-14 -150 0 -243 20 -352 77 -78 41 -181 136 -209 194 -9 18 -37 77 -62 129
-55 114 -129 215 -191 261 -120 89 -145 111 -151 135 -11 44 15 59 104 59 68
0 87 -5 152 -36 96 -46 175 -119 247 -227 94 -143 180 -215 302 -252 109 -34
277 -23 399 25 39 16 41 19 56 86 19 86 56 164 106 228 l39 49 -62 7 c-96 10
-243 42 -342 74 -520 167 -772 574 -752 1209 5 170 23 259 74 375 36 82 94
179 142 236 l39 47 -21 69 c-31 105 -30 346 2 465 12 46 29 100 37 119 l14 34
83 -5 c138 -9 337 -88 541 -216 l79 -49 51 13 c104 28 272 54 427 66 234 17
537 -10 746 -66 l52 -14 78 50 c112 71 260 144 366 180 72 24 110 31 177 32
l84 1 18 -47 c10 -27 27 -94 39 -150 26 -128 22 -303 -9 -413 l-20 -69 39 -47
c81 -97 153 -239 191 -376 20 -69 22 -103 22 -298 0 -239 -14 -339 -71 -505
-139 -407 -456 -632 -1000 -710 l-83 -12 35 -42 c40 -50 87 -147 111 -231 15
-52 18 -121 21 -500 2 -280 8 -450 14 -467 31 -77 114 -81 282 -15 384 152
734 398 995 701 331 384 530 820 609 1333 26 170 23 547 -5 728 -43 274 -114
498 -237 750 -197 403 -494 743 -871 998 -371 250 -791 394 -1249 427 -154 11
-208 11 -368 -1z"/>
<path d="M905 1410 c-9 -15 14 -40 36 -40 24 0 33 18 19 35 -14 17 -46 20 -55
5z"/>
<path d="M1015 1329 c-12 -18 4 -57 25 -64 43 -14 56 32 18 59 -26 19 -35 20
-43 5z"/>
<path d="M1123 1203 c-24 -9 -15 -61 13 -80 25 -16 27 -16 40 1 22 31 -19 92
-53 79z"/>
<path d="M1237 1053 c-14 -13 -7 -50 12 -67 24 -22 65 -17 69 7 7 35 -58 83
-81 60z"/>
<path d="M1413 943 c-7 -2 -13 -15 -13 -27 0 -46 92 -64 98 -19 5 34 -46 62
-85 46z"/>
<path d="M1815 920 c-22 -24 -14 -47 20 -56 28 -7 75 18 75 39 0 38 -65 50
-95 17z"/>
<path d="M1611 896 c-24 -29 17 -64 65 -54 22 4 39 31 31 52 -8 20 -79 22 -96
2z"/>
</g>
</svg>
