<?xml version="1.0" encoding="UTF-8"?>
<svg version="1.1" xmlns="http://www.w3.org/2000/svg" width="50" height="50">
<path d="M0 0 C5.94 0 11.88 0 18 0 C18 8.91 18 17.82 18 27 C12.06 27 6.12 27 0 27 C0 18.09 0 9.18 0 0 Z " fill="#000000" transform="translate(7,22)"/>
<path d="M0 0 C5.94 0 11.88 0 18 0 C18 15.84 18 31.68 18 48 C15.69 48 13.38 48 11 48 C10.97494385 46.98574951 10.9498877 45.97149902 10.92407227 44.92651367 C10.82990355 41.16368973 10.72970595 37.40104631 10.62768555 33.63842773 C10.58437251 32.00988996 10.54269482 30.38130784 10.50268555 28.75268555 C10.44489497 26.41181065 10.38122602 24.07115824 10.31640625 21.73046875 C10.29969376 21.00224411 10.28298126 20.27401947 10.26576233 19.52372742 C10.17532762 16.43833061 9.98276007 13.94828022 9 11 C6.89415562 10.19436362 6.89415562 10.19436362 4.4375 9.8125 C3.61121094 9.65394531 2.78492188 9.49539063 1.93359375 9.33203125 C1.29550781 9.22246094 0.65742188 9.11289063 0 9 C0 6.03 0 3.06 0 0 Z " fill="#000000" transform="translate(25,1)"/>
<path d="M0 0 C5.94 0 11.88 0 18 0 C18 12.21 18 24.42 18 37 C15.69 37 13.38 37 11 37 C10.97494385 36.2886792 10.9498877 35.5773584 10.92407227 34.84448242 C10.80811561 31.62530483 10.68538755 28.40642015 10.5625 25.1875 C10.52318359 24.06794922 10.48386719 22.94839844 10.44335938 21.79492188 C10.38051758 20.18520508 10.38051758 20.18520508 10.31640625 18.54296875 C10.27974854 17.55321045 10.24309082 16.56345215 10.20532227 15.54370117 C10.09209669 12.8781649 10.09209669 12.8781649 9 10 C6.89415562 9.19436362 6.89415562 9.19436362 4.4375 8.8125 C3.61121094 8.65394531 2.78492188 8.49539062 1.93359375 8.33203125 C1.29550781 8.22246094 0.65742188 8.11289062 0 8 C0 5.36 0 2.72 0 0 Z " fill="#000000" transform="translate(16,12)"/>
</svg>
