<?xml version="1.0" encoding="UTF-8"?>
<svg version="1.1" xmlns="http://www.w3.org/2000/svg" width="512" height="512">
<path d="M0 0 C246.83152315 0 246.83152315 0 270.375 3.8125 C271.44532471 3.98281738 272.51564941 4.15313477 273.6184082 4.32861328 C309.44351683 10.27493369 341.01862872 25.64447332 363.20141602 55.32958984 C365.2235824 58.16453691 367.13110855 61.06232836 369 64 C369.69480469 65.0725 370.38960938 66.145 371.10546875 67.25 C379.7494644 81.42815921 385.55492952 97.7898616 389 114 C389.14808105 114.6815918 389.29616211 115.36318359 389.44873047 116.06542969 C397.76464972 155.97110031 391.35238054 199.95370371 369.4140625 234.46875 C365.45779551 240.41458478 360.82660639 245.75200927 356 251 C355.20980469 251.87269531 354.41960937 252.74539062 353.60546875 253.64453125 C336.89148296 271.24549472 314.4395677 282.49936377 292 291 C292.63164062 291.48726563 293.26328125 291.97453125 293.9140625 292.4765625 C308.04786887 303.67770588 319.44553958 316.42479275 330 331 C330.48645996 331.66306152 330.97291992 332.32612305 331.47412109 333.00927734 C340.24738403 344.98684329 348.1941129 357.48969299 356.125 370.03466797 C357.78686703 372.66292799 359.45444843 375.28741203 361.125 377.91015625 C379.32830903 406.53896899 396.81659676 435.63034895 414.23828125 464.73974609 C418.05894371 471.12019613 421.89824955 477.48843157 425.7734375 483.8359375 C426.16219055 484.47331848 426.5509436 485.11069946 426.95147705 485.76739502 C428.80342104 488.80318216 430.65853626 491.83694046 432.51953125 494.8671875 C433.18082031 495.95 433.84210938 497.0328125 434.5234375 498.1484375 C435.10013184 499.08864746 435.67682617 500.02885742 436.27099609 500.99755859 C437.63792236 503.3712467 438.8918433 505.73691008 440.10806274 508.18765259 C440.46371119 508.90306025 440.81935963 509.6184679 441.18578529 510.35555458 C441.45447615 510.89822157 441.723167 511.44088856 442 512 C422.71131526 512.25716469 403.42297915 512.45103501 384.13293457 512.56993389 C375.17576737 512.62661314 366.21966634 512.70385768 357.26318359 512.82983398 C349.45498784 512.93960668 341.64756423 513.01047047 333.83861828 513.03497344 C329.70478389 513.04929421 325.573158 513.08284569 321.44003296 513.16303062 C317.54542951 513.23797253 313.65393255 513.26067822 309.75867653 513.24418449 C308.33313892 513.24719915 306.90749245 513.26893273 305.48258018 513.31126022 C294.75127396 513.61427257 294.75127396 513.61427257 290.42324829 509.62482643 C288.36180361 506.83250316 286.64935964 504.05031162 285 501 C284.06202074 499.50059587 283.11824433 498.00477069 282.1640625 496.515625 C281.31375938 495.096108 280.46743981 493.67419769 279.625 492.25 C276.26513031 486.66321962 272.83984721 481.15035775 269.1875 475.75 C265.12155076 469.73301476 261.19751281 463.63530694 257.3125 457.5 C251.30502679 448.01909709 245.2044918 438.60258025 239.05859375 429.2109375 C236.22363233 424.87856923 233.40017596 420.53887456 230.58070374 416.19641113 C223.53047365 405.33897936 216.45483366 394.49851555 209.34326172 383.68115234 C208.112777 381.80788196 206.8839393 379.93352869 205.65673828 378.05810547 C195.08357154 361.90239646 184.30175466 345.90452111 172 331 C171.19949219 329.98035156 170.39898437 328.96070313 169.57421875 327.91015625 C162.01663857 318.37011804 157.28565467 314.73014548 145 312 C138.4 311.34 131.8 310.68 125 310 C125 376.66 125 443.32 125 512 C83.75 512 42.5 512 0 512 C0 343.04 0 174.08 0 0 Z M125 112 C125 141.7 125 171.4 125 202 C138.2545565 202.66272783 151.37359531 203.16792606 164.625 203.125 C165.91729019 203.12267365 165.91729019 203.12267365 167.23568726 203.12030029 C213.08472428 205.56500771 213.08472428 205.56500771 252.8984375 188.15234375 C262.53276154 177.92857794 264.60018273 165.62676209 264.24609375 152.00390625 C263.71553424 140.899111 260.04822635 130.37901641 251.75 122.6875 C239.94819683 113.47060504 226.5383453 111.82701933 212.07397461 111.88647461 C211.12656403 111.88632858 210.17915344 111.88618256 209.20303345 111.8860321 C206.10277944 111.88672319 203.00258714 111.89447759 199.90234375 111.90234375 C197.74044325 111.90421079 195.57854232 111.90563334 193.41664124 111.90663147 C187.74991673 111.91043412 182.08321821 111.92024501 176.41650391 111.93133545 C169.60484606 111.94340523 162.79317948 111.94796254 155.98151398 111.95378876 C145.65432463 111.9634581 135.32719219 111.9826304 125 112 Z " fill="#000000" transform="translate(35,0)"/>
</svg>
