<?xml version="1.0" standalone="no"?>
<!DOCTYPE svg PUBLIC "-//W3C//DTD SVG 20010904//EN"
 "http://www.w3.org/TR/2001/REC-SVG-20010904/DTD/svg10.dtd">
<svg version="1.0" xmlns="http://www.w3.org/2000/svg"
 width="225.000000pt" height="225.000000pt" viewBox="0 0 225.000000 225.000000"
 preserveAspectRatio="xMidYMid meet">
<metadata>
Created by potrace 1.10, written by Peter Selinger 2001-2011
</metadata>
<g transform="translate(0.000000,225.000000) scale(0.100000,-0.100000)"
fill="#000000" stroke="none">
<path d="M1150 1754 c-316 -36 -469 -116 -608 -320 -22 -34 -48 -64 -56 -67
-22 -9 -89 -105 -115 -167 -29 -67 -41 -199 -26 -267 26 -112 98 -199 209
-253 97 -48 151 -50 310 -11 70 17 146 31 170 31 101 0 281 -75 373 -155 28
-25 54 -45 57 -45 3 0 6 10 6 23 0 48 32 129 66 167 20 21 68 57 108 79 150
82 226 166 252 279 71 302 -143 621 -462 686 -76 16 -227 27 -284 20z m292
-49 c21 -8 39 -15 40 -14 2 1 20 -6 42 -15 21 -9 40 -16 43 -16 2 0 30 -17 61
-39 153 -104 250 -273 255 -449 1 -30 0 -55 -3 -57 -3 -2 -7 -18 -8 -36 -4
-56 -51 -136 -111 -192 -55 -51 -177 -124 -188 -113 -3 3 17 34 45 69 59 75
96 146 107 202 11 56 9 155 -3 185 -5 14 -8 28 -5 32 6 11 -35 87 -78 145 -45
61 -135 132 -204 163 -28 12 -59 26 -70 31 -115 51 -384 51 -530 0 -30 -11
-55 -18 -55 -15 0 2 -15 -5 -34 -15 -19 -11 -37 -17 -40 -14 -7 8 45 53 62 53
6 0 12 4 12 9 0 9 143 69 182 76 13 2 41 9 63 14 59 15 76 16 235 14 105 -1
155 -6 182 -18z m-132 -119 c164 -47 295 -151 359 -285 32 -69 36 -84 36 -161
0 -79 -3 -92 -37 -160 -20 -41 -69 -113 -109 -160 -87 -103 -102 -135 -101
-222 0 -38 -2 -68 -4 -68 -2 0 -15 23 -29 51 -64 126 -151 209 -238 229 -26 5
-134 10 -240 10 -251 0 -315 16 -390 99 -87 96 -116 223 -82 355 22 83 41 111
115 167 209 157 485 213 720 145z m-878 -425 c-3 -36 0 -61 7 -65 6 -4 11 -19
11 -34 0 -40 48 -128 95 -173 86 -84 156 -100 448 -102 172 -2 216 -5 231 -17
48 -38 134 -130 122 -130 -13 0 -106 34 -138 51 -10 5 -26 9 -36 9 -10 0 -23
5 -29 11 -14 14 -195 14 -221 0 -11 -6 -36 -11 -56 -11 -19 0 -36 -5 -38 -12
-6 -16 -225 -18 -236 -3 -4 6 -28 23 -53 38 -64 36 -130 114 -152 176 -33 95
-12 303 32 314 9 3 16 5 17 6 0 0 -2 -25 -4 -58z"/>
</g>
</svg>
